<svg width="383" height="73" viewBox="0 0 383 73" fill="none" xmlns="http://www.w3.org/2000/svg">
<path d="M46.3 72.3C44.1667 72.7667 41.8667 73 39.4 73C36.4667 73 33.2667 72.6333 29.8 71.9C29.3333 70.6333 28.6 67.9667 27.6 63.9C26.6 59.7667 25.8 57.0333 25.2 55.7L23.2 55.6L21.5 55.7C21.2333 56.5 20.8 58.4667 20.2 61.6C19.7333 64.2 19.2667 66.3333 18.8 68C18.3333 69.6 17.6667 71.0667 16.8 72.4C16.1333 72.5333 15.1333 72.6 13.8 72.6C13.2 72.6 11.9 72.5333 9.9 72.4C4.1 72.1333 0.866667 72 0.2 72C0.2 71.6667 0.266667 70.9 0.4 69.7C0.533333 68.4333 0.733333 67.0333 1 65.5L3.2 52.9C4.93333 42.5667 6.56667 33.5667 8.1 25.9C9.7 18.2333 11.7667 10.1333 14.3 1.59999C15.2333 1.46666 16.5 1.4 18.1 1.4H18.7C23.0333 1.4 27.2667 1.23333 31.4 0.899997C32.2 4.03333 32.9333 7.13333 33.6 10.2C34.2667 13.2 34.8667 15.9 35.4 18.3C37.5333 27.5667 38.9667 33.7333 39.7 36.8L46.3 72.3ZM25.4 42.9C23.9333 29.5667 23.2333 22.9 23.3 22.9L23.2 21.9C23.2 21.9 23.1333 22.7 23 24.3C22.8 29.3 22.5 33.2667 22.1 36.2L21.2 42.9H25.4ZM57.6594 70.2L57.5594 70.25H57.6094C56.8094 70.7833 55.8927 71.2167 54.8594 71.55C53.826 71.85 52.776 72 51.7094 72C49.5094 72 47.8094 71.4667 46.6094 70.4C45.676 69.5667 45.2094 66.8167 45.2094 62.15C45.2094 60.7833 45.2427 58.7 45.3094 55.9C45.376 53.5 45.4094 51.7833 45.4094 50.75C45.4094 49.6167 45.376 48.35 45.3094 46.95C47.076 46.6833 48.876 46.5833 50.7094 46.65H53.0594C53.126 47.65 53.1594 49.5833 53.1594 52.45C53.1594 54.3167 53.1927 55.9833 53.2594 57.45C53.2927 57.8833 53.3094 58.45 53.3094 59.15C53.4427 61.3833 53.8427 62.7833 54.5094 63.35C54.776 63.4833 55.1427 63.55 55.6094 63.55C56.2094 63.55 56.726 63.3333 57.1594 62.9C57.626 62.4667 57.8927 61.75 57.9594 60.75C58.026 59.8167 58.0594 59.1333 58.0594 58.7C58.0594 57.5667 58.0094 56.4 57.9094 55.2C57.876 54.8 57.8427 54.2167 57.8094 53.45C57.776 52.65 57.7594 51.95 57.7594 51.35C57.7594 49.6167 57.8427 48.1833 58.0094 47.05C58.876 46.8167 59.576 46.6833 60.1094 46.65C60.6427 46.5833 61.2427 46.5667 61.9094 46.6C62.2094 46.6333 62.726 46.65 63.4594 46.65C64.226 46.65 64.976 46.6167 65.7094 46.55C65.7094 50.55 65.726 53.5167 65.7594 55.45C65.826 59.7833 65.8594 63.0667 65.8594 65.3C65.8594 66.9 65.826 69.2 65.7594 72.2L64.5594 72.15C63.8594 72.15 63.2094 72.1667 62.6094 72.2C61.6094 72.3 60.576 72.35 59.5094 72.35C58.3427 72.35 57.7594 72.2333 57.7594 72C57.6927 71.5667 57.6594 70.9833 57.6594 70.25V70.2ZM80.9691 36.85C80.9691 36.75 81.4025 36.65 82.2691 36.55C83.1358 36.4167 84.0858 36.35 85.1191 36.35C86.4525 36.35 87.6691 36.4667 88.7691 36.7V40.1C88.7691 43.2667 88.8358 47.8833 88.9691 53.95C89.0691 57.6833 89.1191 61.6667 89.1191 65.9C89.1191 68.8 89.1025 70.9 89.0691 72.2H87.6691L86.3691 72.25C85.0691 72.25 83.2858 72.2 81.0191 72.1C80.8525 71.9333 80.7691 71.75 80.7691 71.55L80.7191 70.4L80.6191 70.55C80.1525 71.1167 79.6525 71.5333 79.1191 71.8C78.5858 72.0333 77.9691 72.15 77.2691 72.15C76.8025 72.15 76.4525 72.1333 76.2191 72.1H76.2691C73.8025 71.8667 71.9025 71.0667 70.5691 69.7C69.2691 68.3333 68.3858 66.6667 67.9191 64.7C67.4858 62.7333 67.2358 60.4167 67.1691 57.75C67.1691 55.25 67.5525 53.05 68.3191 51.15C69.0858 49.2167 70.2191 47.95 71.7191 47.35C72.9858 46.8833 74.5691 46.65 76.4691 46.65C78.3025 46.65 79.7525 46.8 80.8191 47.1L80.7691 45.35C80.7358 44.5167 80.7191 43.45 80.7191 42.15C80.7191 41.4833 80.8025 39.9 80.9691 37.4V36.85ZM74.6691 56.35C74.4691 56.8833 74.3691 57.8167 74.3691 59.15C74.3691 60.85 74.7191 62.3333 75.4191 63.6C76.1191 64.8333 77.0358 65.45 78.1691 65.45C79.4025 65.45 80.1858 64.9 80.5191 63.8C80.8525 62.6667 81.0191 60.8833 81.0191 58.45C81.0191 56.65 80.9691 55.4 80.8691 54.7C80.8025 54 80.6191 53.5333 80.3191 53.3C80.0191 53.0667 79.4858 52.95 78.7191 52.95C77.5858 52.95 76.6691 53.25 75.9691 53.85C75.2691 54.45 74.8358 55.3333 74.6691 56.5V56.35ZM99.3137 35.85C99.3137 36.75 99.3303 37.5 99.3637 38.1C99.3637 38.4333 99.397 39.0333 99.4637 39.9L99.5637 43.1C99.397 43.3 99.1303 43.4 98.7637 43.4C98.5303 43.4 98.2137 43.3833 97.8137 43.35C97.4137 43.2833 97.0803 43.25 96.8137 43.25C96.4137 43.25 95.7803 43.2167 94.9137 43.15C94.5803 43.1167 94.0137 43.1 93.2137 43.1C92.347 43.1 91.6803 43.1167 91.2137 43.15C91.2137 42.45 91.1803 41.5333 91.1137 40.4L91.0637 39.6C90.997 38.1333 90.9803 36.8333 91.0137 35.7L99.3137 35.85ZM99.5137 46.85C99.5137 48.5833 99.4803 51.1167 99.4137 54.45L99.3637 57.25C99.297 60.3167 99.2637 62.6167 99.2637 64.15C99.2637 67.0167 99.3303 69.5333 99.4637 71.7C99.297 71.9333 98.947 72.0833 98.4137 72.15C97.9137 72.25 97.2137 72.3 96.3137 72.3C95.2803 72.3 94.5637 72.2833 94.1637 72.25C92.8637 72.1833 91.7637 72.2833 90.8637 72.55C91.0303 70.3167 91.1137 68.0667 91.1137 65.8C91.1137 64.4 91.0803 62.3333 91.0137 59.6C90.947 57.3333 90.9137 55.3667 90.9137 53.7C90.9137 51.2333 91.0137 48.85 91.2137 46.55C91.6803 46.4833 92.0803 46.45 92.4137 46.45C92.7137 46.45 92.947 46.4667 93.1137 46.5C95.1803 46.6 96.797 46.6333 97.9637 46.6L99.5137 46.85ZM110.215 46.05C110.382 46.0833 110.982 46.1 112.015 46.1C112.215 46.0667 112.632 46.05 113.265 46.05C113.665 46.05 113.949 46.0667 114.115 46.1C115.282 46.1667 116.382 46.4 117.415 46.8C118.482 47.1667 119.332 47.6667 119.965 48.3C120.932 49.0667 121.565 50.2667 121.865 51.9C122.165 53.5333 122.315 55.4333 122.315 57.6V59.25C122.215 62.0833 122.049 64.4667 121.815 66.4C121.582 68.3333 121.182 69.6333 120.615 70.3C119.949 71.2333 118.982 71.8833 117.715 72.25C116.482 72.6167 115.032 72.8 113.365 72.8C112.732 72.8 111.849 72.7667 110.715 72.7C109.649 72.6333 108.832 72.6 108.265 72.6C106.499 72.2667 104.949 71.5167 103.615 70.35C102.582 69.35 101.865 68.1 101.465 66.6C101.065 65.0667 100.865 63.35 100.865 61.45L100.815 55.75C100.715 54.85 100.815 53.55 101.115 51.85C101.449 50.15 101.782 49.1833 102.115 48.95C102.482 48.0167 103.432 47.3 104.965 46.8C106.532 46.3 108.282 46.05 110.215 46.05ZM109.165 56.15C109.132 56.4833 109.099 56.95 109.065 57.55C109.032 58.1167 109.015 58.55 109.015 58.85L108.965 59.85C108.965 60.6833 108.932 61.6 108.865 62.6C108.899 63.3333 109.182 63.9333 109.715 64.4C110.249 64.8667 110.849 65.1 111.515 65.1C112.182 65.1 112.849 64.95 113.515 64.65C113.715 64.55 113.965 64 114.265 63L114.315 62.75C114.515 61.0833 114.615 59.8667 114.615 59.1C114.615 58.3 114.549 57.5833 114.415 56.95C114.249 56.0833 113.915 55.4 113.415 54.9C112.949 54.4 112.349 54.15 111.615 54.15C111.482 54.15 111.215 54.1833 110.815 54.25C109.982 54.5167 109.499 54.8833 109.365 55.35L109.165 56.15ZM163.477 38.6C166.011 41.8 167.877 44.4667 169.077 46.6C170.277 48.6667 170.877 51.1 170.877 53.9C170.877 55.0333 170.777 56.2667 170.577 57.6C169.511 63.5333 166.744 67.6 162.277 69.8C157.811 71.9333 152.077 73 145.077 73C143.011 73 136.544 72.6 125.677 71.8C125.477 66.8 125.377 58.8 125.377 47.8C125.377 35.8667 125.411 25.1 125.477 15.5V2.49999C131.344 0.83333 136.977 -2.86102e-06 142.377 -2.86102e-06C149.911 -2.86102e-06 156.077 1.66666 160.877 5C165.744 8.26666 168.177 13.6667 168.177 21.2C168.177 26.0667 166.477 31.3667 163.077 37.1V37C162.944 37.2667 162.877 37.4667 162.877 37.6C162.877 37.8 163.077 38.1 163.477 38.5V38.6ZM152.377 21.2C151.377 19.3333 150.111 18.2 148.577 17.8C147.511 17.6667 146.677 17.6 146.077 17.6C144.344 17.4667 143.044 17.3 142.177 17.1C142.377 18.2333 142.477 19.9667 142.477 22.3V25.9C142.477 27.5667 142.511 28.8667 142.577 29.8H145.477C148.411 29.8 150.411 28.8 151.477 26.8C152.344 25.2 152.777 23.9 152.777 22.9C152.777 22.3 152.644 21.7333 152.377 21.2ZM152.377 51.9C152.377 50.7667 152.177 49.5333 151.777 48.2V48.3C151.444 47.5667 150.977 46.9 150.377 46.3C149.777 45.7 149.177 45.3333 148.577 45.2C147.511 44.9333 145.944 44.7333 143.877 44.6C143.677 44.6 143.444 44.6333 143.177 44.7C142.977 44.7 142.744 44.6667 142.477 44.6C141.811 47.4 141.477 49.8333 141.477 51.9C141.477 54.3 141.844 56.1667 142.577 57.5C144.977 57.5667 146.844 57.5 148.177 57.3C149.577 57.0333 150.744 56.3333 151.677 55.2C152.144 54.5333 152.377 53.4333 152.377 51.9ZM178.314 51.24C178.447 51.2667 178.927 51.28 179.754 51.28C179.914 51.2533 180.247 51.24 180.754 51.24C181.074 51.24 181.3 51.2533 181.434 51.28C182.367 51.3333 183.247 51.52 184.074 51.84C184.927 52.1333 185.607 52.5333 186.114 53.04C186.887 53.6533 187.394 54.6133 187.634 55.92C187.874 57.2267 187.994 58.7467 187.994 60.48V61.8C187.914 64.0667 187.78 65.9733 187.594 67.52C187.407 69.0667 187.087 70.1067 186.634 70.64C186.1 71.3867 185.327 71.9067 184.314 72.2C183.327 72.4933 182.167 72.64 180.834 72.64C180.327 72.64 179.62 72.6133 178.714 72.56C177.86 72.5067 177.207 72.48 176.754 72.48C175.34 72.2133 174.1 71.6133 173.034 70.68C172.207 69.88 171.634 68.88 171.314 67.68C170.994 66.4533 170.834 65.08 170.834 63.56L170.794 59C170.714 58.28 170.794 57.24 171.034 55.88C171.3 54.52 171.567 53.7467 171.834 53.56C172.127 52.8133 172.887 52.24 174.114 51.84C175.367 51.44 176.767 51.24 178.314 51.24ZM177.474 59.32C177.447 59.5867 177.42 59.96 177.394 60.44C177.367 60.8933 177.354 61.24 177.354 61.48L177.314 62.28C177.314 62.9467 177.287 63.68 177.234 64.48C177.26 65.0667 177.487 65.5467 177.914 65.92C178.34 66.2933 178.82 66.48 179.354 66.48C179.887 66.48 180.42 66.36 180.954 66.12C181.114 66.04 181.314 65.6 181.554 64.8L181.594 64.6C181.754 63.2667 181.834 62.2933 181.834 61.68C181.834 61.04 181.78 60.4667 181.674 59.96C181.54 59.2667 181.274 58.72 180.874 58.32C180.5 57.92 180.02 57.72 179.434 57.72C179.327 57.72 179.114 57.7467 178.794 57.8C178.127 58.0133 177.74 58.3067 177.634 58.68L177.474 59.32ZM195.803 43.08C195.803 43.8 195.817 44.4 195.843 44.88C195.843 45.1467 195.87 45.6267 195.923 46.32L196.003 48.88C195.87 49.04 195.657 49.12 195.363 49.12C195.177 49.12 194.923 49.1067 194.603 49.08C194.283 49.0267 194.017 49 193.803 49C193.483 49 192.977 48.9733 192.283 48.92C192.017 48.8933 191.563 48.88 190.923 48.88C190.23 48.88 189.697 48.8933 189.323 48.92C189.323 48.36 189.297 47.6267 189.243 46.72L189.203 46.08C189.15 44.9067 189.137 43.8667 189.163 42.96L195.803 43.08ZM195.963 51.88C195.963 53.2667 195.937 55.2933 195.883 57.96L195.843 60.2C195.79 62.6533 195.763 64.4933 195.763 65.72C195.763 68.0133 195.817 70.0267 195.923 71.76C195.79 71.9467 195.51 72.0667 195.083 72.12C194.683 72.2 194.123 72.24 193.403 72.24C192.577 72.24 192.003 72.2267 191.683 72.2C190.643 72.1467 189.763 72.2267 189.043 72.44C189.177 70.6533 189.243 68.8533 189.243 67.04C189.243 65.92 189.217 64.2667 189.163 62.08C189.11 60.2667 189.083 58.6933 189.083 57.36C189.083 55.3867 189.163 53.48 189.323 51.64C189.697 51.5867 190.017 51.56 190.283 51.56C190.523 51.56 190.71 51.5733 190.843 51.6C192.497 51.68 193.79 51.7067 194.723 51.68L195.963 51.88ZM214.085 64.12C213.951 65.9333 213.791 67.3867 213.605 68.48C213.445 69.5733 213.191 70.32 212.845 70.72C212.311 71.4667 211.538 71.9867 210.525 72.28C209.538 72.5733 208.378 72.72 207.045 72.72C206.538 72.72 205.831 72.6933 204.925 72.64C204.071 72.5867 203.418 72.56 202.965 72.56C201.498 72.2933 200.258 71.6933 199.245 70.76C198.418 69.96 197.845 68.96 197.525 67.76C197.231 66.56 197.085 65.2133 197.085 63.72V62.48C197.085 60.9067 197.045 59.7867 196.965 59.12C196.965 58.0267 197.045 57.04 197.205 56.16C197.258 55.6267 197.418 55 197.685 54.28L197.925 53.76C197.898 53.7867 197.885 53.7867 197.885 53.76C198.258 52.96 199.071 52.36 200.325 51.96C201.578 51.5333 202.978 51.32 204.525 51.32C204.658 51.3467 205.138 51.36 205.965 51.36C206.125 51.3333 206.458 51.32 206.965 51.32C207.285 51.32 207.511 51.3333 207.645 51.36C209.751 51.5467 211.325 52.12 212.365 53.08C213.031 53.6133 213.471 54.3867 213.685 55.4C213.925 56.3867 214.071 57.7467 214.125 59.48V59.92L214.165 60.52C213.338 60.68 212.645 60.76 212.085 60.76C211.445 60.76 210.351 60.6667 208.805 60.48L207.925 60.36C207.791 59.5867 207.525 58.9733 207.125 58.52C206.725 58.04 206.218 57.8 205.605 57.8C205.445 57.8 205.231 57.8267 204.965 57.88H205.005C204.631 58.0133 204.338 58.2 204.125 58.44C203.911 58.6533 203.765 58.9733 203.685 59.4C203.578 60.1467 203.525 61.12 203.525 62.32L203.485 63.68C203.458 63.9733 203.445 64.3333 203.445 64.76C203.445 65.3733 203.645 65.84 204.045 66.16C204.471 66.4533 204.991 66.6 205.605 66.6C206.111 66.6 206.605 66.4667 207.085 66.2C207.218 66.04 207.351 65.7467 207.485 65.32C207.645 64.8667 207.765 64.4133 207.845 63.96C208.645 64.0667 209.471 64.0933 210.325 64.04H211.205L212.085 64C212.751 64 213.258 64.04 213.605 64.12H214.085ZM221.62 53.44C221.647 53.44 221.647 53.44 221.62 53.44C221.62 53.4133 221.633 53.4 221.66 53.4C222.3 52.9733 223.033 52.64 223.86 52.4C224.713 52.1333 225.553 52 226.38 52C228.14 52 229.5 52.4267 230.46 53.28C231.207 53.9467 231.58 56.1467 231.58 59.88C231.58 60.9733 231.553 62.64 231.5 64.88C231.447 66.8 231.42 68.1733 231.42 69C231.42 69.9067 231.447 70.92 231.5 72.04C230.033 72.2533 228.593 72.3333 227.18 72.28H225.3C225.247 71.48 225.22 69.9333 225.22 67.64V65.64L225.18 62.8C225.153 62.64 225.14 62.3733 225.14 62C225.113 61.2 225.033 60.5867 224.9 60.16C224.793 59.7333 224.687 59.4667 224.58 59.36C224.5 59.2533 224.367 59.12 224.18 58.96C223.967 58.8267 223.66 58.76 223.26 58.76C222.78 58.76 222.353 58.9333 221.98 59.28C221.607 59.6267 221.407 60.2 221.38 61C221.353 61.4 221.34 62.0133 221.34 62.84C221.34 63.5067 221.367 64.48 221.42 65.76C221.473 67.0933 221.5 68.0933 221.5 68.76C221.5 69.96 221.447 71.0267 221.34 71.96C220.62 72.1467 220.033 72.2533 219.58 72.28C219.153 72.3333 218.673 72.3467 218.14 72.32C217.9 72.2933 217.513 72.28 216.98 72.28C216.367 72.28 215.767 72.3067 215.18 72.36V69.16L215.14 64.52C215.113 62.3867 215.1 58.5333 215.1 52.96C215.1 47.8667 215.127 44.48 215.18 42.8C216.033 42.9067 216.7 42.96 217.18 42.96C217.633 42.96 218.073 42.9333 218.5 42.88L219.18 42.8C220.06 42.72 220.527 42.68 220.58 42.68C221.22 42.68 221.553 42.8 221.58 43.04C221.633 43.7867 221.66 45.2533 221.66 47.44L221.62 51.08V53.44ZM242.91 70.56L242.83 70.6H242.87C242.23 71.0267 241.496 71.3733 240.67 71.64C239.843 71.88 239.003 72 238.15 72C236.39 72 235.03 71.5733 234.07 70.72C233.323 70.0533 232.95 67.8533 232.95 64.12C232.95 63.0267 232.976 61.36 233.03 59.12C233.083 57.2 233.11 55.8267 233.11 55C233.11 54.0933 233.083 53.08 233.03 51.96C234.443 51.7467 235.883 51.6667 237.35 51.72H239.23C239.283 52.52 239.31 54.0667 239.31 56.36C239.31 57.8533 239.336 59.1867 239.39 60.36C239.416 60.7067 239.43 61.16 239.43 61.72C239.536 63.5067 239.856 64.6267 240.39 65.08C240.603 65.1867 240.896 65.24 241.27 65.24C241.75 65.24 242.163 65.0667 242.51 64.72C242.883 64.3733 243.096 63.8 243.15 63C243.203 62.2533 243.23 61.7067 243.23 61.36C243.23 60.4533 243.19 59.52 243.11 58.56C243.083 58.24 243.056 57.7733 243.03 57.16C243.003 56.52 242.99 55.96 242.99 55.48C242.99 54.0933 243.056 52.9467 243.19 52.04C243.883 51.8533 244.443 51.7467 244.87 51.72C245.296 51.6667 245.776 51.6533 246.31 51.68C246.55 51.7067 246.963 51.72 247.55 51.72C248.163 51.72 248.763 51.6933 249.35 51.64C249.35 54.84 249.363 57.2133 249.39 58.76C249.443 62.2267 249.47 64.8533 249.47 66.64C249.47 67.92 249.443 69.76 249.39 72.16L248.43 72.12C247.87 72.12 247.35 72.1333 246.87 72.16C246.07 72.24 245.243 72.28 244.39 72.28C243.456 72.28 242.99 72.1867 242.99 72C242.936 71.6533 242.91 71.1867 242.91 70.6V70.56ZM263.197 62.84C265.464 66.36 267.277 69.48 268.637 72.2L266.237 72.28C265.171 72.3333 264.331 72.36 263.717 72.36C262.517 72.36 261.637 72.2933 261.077 72.16C260.917 71.8933 260.491 71.1067 259.797 69.8L259.277 68.8C258.984 68.2933 258.837 68.0133 258.837 67.96L257.877 66.08V67.16L257.917 68.44C257.917 70.04 257.824 71.3067 257.637 72.24C257.317 72.2133 256.424 72.2 254.957 72.2C254.157 72.2533 253.491 72.28 252.957 72.28C252.424 72.28 251.837 72.2267 251.197 72.12C251.091 69.3467 251.037 66.2133 251.037 62.72C251.037 60.6667 251.064 57.6133 251.117 53.56C251.171 49.4533 251.197 45.8533 251.197 42.76C252.291 42.76 253.051 42.7467 253.477 42.72H254.477L255.517 42.68L256.877 42.76L257.837 42.8V52.64L257.797 53.6C257.771 54.0267 257.757 54.64 257.757 55.44L257.717 55.92C258.011 55.6 258.224 55.3067 258.357 55.04C258.491 54.7733 258.597 54.56 258.677 54.4C258.731 54.32 258.784 54.2133 258.837 54.08C258.917 53.92 258.997 53.7733 259.077 53.64V53.68C259.771 52.5067 260.424 51.56 261.037 50.84C261.811 51.1067 262.584 51.24 263.357 51.24C263.784 51.24 264.451 51.2133 265.357 51.16H265.557C265.824 51.1333 266.304 51.12 266.997 51.12C267.557 51.12 267.997 51.1333 268.317 51.16C267.624 52.2267 266.784 53.4267 265.797 54.76C264.837 56.0667 264.251 56.8533 264.037 57.12C264.011 57.1467 263.837 57.36 263.517 57.76L262.997 58.44L261.557 60.32C261.691 60.56 261.824 60.7867 261.957 61C262.117 61.1867 262.251 61.36 262.357 61.52C262.624 62 262.904 62.44 263.197 62.84ZM314.16 25.1C311.36 25.5667 308.593 25.8 305.86 25.8C302.593 25.8 299.727 25.4333 297.26 24.7C297.393 24.0333 297.46 23.5667 297.46 23.3C297.46 21.7667 296.893 20.5 295.76 19.5C294.627 18.5 293.36 18 291.96 18C290.96 18 290.06 18.3333 289.26 19C288.527 19.6 288.093 20.5333 287.96 21.8C287.76 22.4 287.66 22.9333 287.66 23.4L287.76 24.3C287.76 24.4333 287.76 24.5 287.76 24.5C288.227 25.9 288.893 26.8667 289.76 27.4C290.693 27.9333 291.793 28.3 293.06 28.5C296.393 28.9667 299.76 30.2 303.16 32.2C306.56 34.2 309.293 36.5333 311.36 39.2C312.627 40.9333 313.627 42.8667 314.36 45C315.093 47.0667 315.46 49.1 315.46 51.1C315.46 54.5667 314.693 57.9333 313.16 61.2C311.427 64.9333 308.76 67.8333 305.16 69.9C301.56 71.9667 297.627 73 293.36 73C289.027 73 284.793 72.1667 280.66 70.5C276.593 68.7667 273.293 66.3 270.76 63.1C268.227 59.9 267.093 56.2 267.36 52V51.1C269.293 50.7667 271.427 50.6 273.76 50.6C275.76 50.6 277.46 50.6333 278.86 50.7C280.127 50.7667 282.393 50.8 285.66 50.8C285.727 52.8 286.327 54.3667 287.46 55.5C288.66 56.6333 290.027 57.2 291.56 57.2C292.893 57.2 293.993 56.7667 294.86 55.9C295.793 55.0333 296.26 53.8 296.26 52.2C296.26 51.6 296.227 51.1333 296.16 50.8C295.827 48.3333 294.66 46.6 292.66 45.6C290.66 44.6 287.96 43.7667 284.56 43.1L283.06 42.8C280.193 42.2667 277.693 41.1 275.56 39.3C273.16 36.9667 271.36 34.4667 270.16 31.8C268.96 29.1333 268.36 26.4667 268.36 23.8C268.36 19.4667 269.66 15.4 272.26 11.6C274.927 7.73333 278.36 4.93333 282.56 3.2C285.16 2.13333 288.393 1.59999 292.26 1.59999C297.26 1.59999 301.827 2.53333 305.96 4.39999C309.027 6 311.46 8.1 313.26 10.7C315.06 13.3 315.96 16.3667 315.96 19.9C315.96 21.2333 315.76 22.9667 315.36 25.1H314.16ZM338.845 46.85C338.845 47.0167 338.862 47.3 338.895 47.7C338.962 48.1 338.995 48.4667 338.995 48.8C338.962 49.6667 338.945 50.9667 338.945 52.7C338.945 55.0333 338.962 56.7833 338.995 57.95V60.95L339.045 63.95C339.045 65.9167 338.995 67.9333 338.895 70V70.5C338.895 71.0333 338.829 71.45 338.695 71.75C338.562 72.0167 338.212 72.2 337.645 72.3H331.295C330.529 72.0667 330.145 71.6167 330.145 70.95V70.6C329.312 71.1333 328.395 71.5667 327.395 71.9C326.395 72.2 325.429 72.35 324.495 72.35C322.729 72.35 321.229 71.6333 319.995 70.2C318.795 68.7667 317.895 67 317.295 64.9C316.695 62.7667 316.395 60.7 316.395 58.7C316.395 56.5 316.795 54.5167 317.595 52.75C318.395 50.95 319.495 49.5333 320.895 48.5C322.295 47.4667 323.845 46.9333 325.545 46.9C326.579 46.9 327.545 46.9833 328.445 47.15C329.345 47.3167 329.912 47.5167 330.145 47.75C330.145 47.5833 330.112 47.3667 330.045 47.1C329.979 46.8333 329.995 46.6333 330.095 46.5C330.162 46.4333 330.395 46.4 330.795 46.4C331.395 46.4 332.179 46.45 333.145 46.55C334.145 46.6167 334.779 46.6667 335.045 46.7L338.195 46.85H338.845ZM324.045 59.7C324.045 61.1667 324.379 62.4 325.045 63.4C325.712 64.3667 326.612 64.85 327.745 64.85C328.479 64.85 329.012 64.65 329.345 64.25C329.679 63.85 329.879 63.3167 329.945 62.65C330.045 61.9833 330.095 60.9833 330.095 59.65V58.35C330.095 56.9167 330.062 55.95 329.995 55.45C329.962 54.9167 329.812 54.5667 329.545 54.4C329.312 54.2 328.879 54.1 328.245 54.1C327.179 54.1 326.312 54.4 325.645 55C324.979 55.5667 324.545 56.2667 324.345 57.1C324.145 57.7667 324.045 58.6333 324.045 59.7ZM350.775 61.75C351.108 60.1833 351.458 58.3 351.825 56.1C352.591 51.8333 353.325 48.7833 354.025 46.95L356.575 46.9C357.841 46.8333 358.825 46.8 359.525 46.8C360.658 46.8 361.541 46.8333 362.175 46.9C361.408 49.0333 360.725 51.2833 360.125 53.65C359.525 56.0167 358.825 59.0667 358.025 62.8C357.091 67.0667 356.358 70.2 355.825 72.2C354.658 72.4 353.225 72.5 351.525 72.5L345.025 72.4C343.425 62.6667 341.625 54.0667 339.625 46.6C340.491 46.7667 341.458 46.85 342.525 46.85C343.225 46.85 343.758 46.8333 344.125 46.8L345.825 46.75C346.525 46.75 347.308 46.8 348.175 46.9L349.225 53C349.791 56.7667 350.308 59.6833 350.775 61.75ZM369.325 60.9C369.359 62 369.409 62.8167 369.475 63.35C369.575 63.85 369.809 64.3833 370.175 64.95C370.442 65.45 370.792 65.8333 371.225 66.1C371.659 66.3667 372.109 66.5 372.575 66.5C373.275 66.5 373.842 66.1333 374.275 65.4C374.709 64.6333 374.892 63.5167 374.825 62.05C375.792 62.1833 376.825 62.2167 377.925 62.15L382.625 62.4C382.625 63.9 382.509 65.4167 382.275 66.95C382.075 68.4833 381.675 69.65 381.075 70.45C380.409 71.3833 379.442 72.0167 378.175 72.35C376.942 72.7167 375.492 72.9 373.825 72.9C373.192 72.9 372.309 72.8667 371.175 72.8C370.642 72.7667 369.859 72.75 368.825 72.75C367.792 72.6167 366.759 72.25 365.725 71.65C364.125 70.3833 362.942 68.5833 362.175 66.25C361.409 63.9167 361.025 61.3833 361.025 58.65C361.025 55.7833 361.425 53.15 362.225 50.75C362.892 49.25 364.125 48.0833 365.925 47.25C367.725 46.4167 369.725 46 371.925 46C373.125 46 374.292 46.1333 375.425 46.4C377.992 46.9 379.859 48.1167 381.025 50.05C382.225 51.95 382.825 54.2333 382.825 56.9C382.825 57.3333 382.792 58.0833 382.725 59.15C382.092 59.3167 380.642 59.4833 378.375 59.65C376.109 59.7833 373.992 59.85 372.025 59.85H369.325V60.9ZM374.225 51.9C373.725 51.6 373.275 51.45 372.875 51.45C371.709 51.45 370.875 51.7167 370.375 52.25C369.875 52.7833 369.575 53.5333 369.475 54.5C369.442 54.6333 369.425 54.7833 369.425 54.95C369.425 55.15 369.525 55.2667 369.725 55.3C369.925 55.3333 370.425 55.3333 371.225 55.3H373.425L374.925 55.35H375.575C375.675 55.3833 375.742 55.3833 375.775 55.35C375.809 55.3167 375.825 55.25 375.825 55.15V54.95C375.825 54.25 375.692 53.6333 375.425 53.1C375.192 52.5667 374.859 52.1833 374.425 51.95L374.225 51.9Z" fill="black"/>
</svg>
