<svg width="9" height="6" viewBox="0 0 9 6" fill="none" xmlns="http://www.w3.org/2000/svg">
<path d="M4.12946 5.8272C4.17075 5.88049 4.22599 5.92407 4.29043 5.95417C4.35488 5.98427 4.42659 6 4.49939 6C4.57219 6 4.6439 5.98427 4.70835 5.95417C4.77279 5.92407 4.82803 5.88049 4.86932 5.8272L8.91964 0.627557C8.96652 0.567584 8.99401 0.497339 8.99913 0.424453C9.00424 0.351568 8.98679 0.27883 8.94866 0.214143C8.91053 0.149456 8.85318 0.0952928 8.78284 0.0575393C8.71251 0.0197859 8.63188 -0.00011453 8.54971 4.95827e-07H0.449073C0.367096 0.000301439 0.286762 0.0204577 0.216711 0.0583016C0.14666 0.0961456 0.089541 0.150245 0.0514976 0.214783C0.0134543 0.279321 -0.00407424 0.351854 0.000796921 0.424584C0.00566809 0.497313 0.0327547 0.567486 0.0791438 0.627557L4.12946 5.8272Z" fill="#333333"/>
</svg>
