<svg width="20" height="20" viewBox="0 0 20 20" fill="none" xmlns="http://www.w3.org/2000/svg">
<path d="M1 10L9.67801 14.3648C9.79607 14.4241 9.8551 14.4538 9.91702 14.4655C9.97186 14.4759 10.0281 14.4759 10.083 14.4655C10.1449 14.4538 10.2039 14.4241 10.322 14.3648L19 10M1 14.5267L9.67801 18.8915C9.79607 18.9509 9.8551 18.9806 9.91702 18.9922C9.97186 19.0026 10.0281 19.0026 10.083 18.9922C10.1449 18.9806 10.2039 18.9509 10.322 18.8915L19 14.5267M1 5.47328L9.67801 1.10852C9.79607 1.04914 9.8551 1.01945 9.91702 1.00776C9.97186 0.997412 10.0281 0.997412 10.083 1.00776C10.1449 1.01945 10.2039 1.04914 10.322 1.10852L19 5.47328L10.322 9.83805C10.2039 9.89743 10.1449 9.92712 10.083 9.93881C10.0281 9.94916 9.97186 9.94916 9.91702 9.93881C9.8551 9.92712 9.79607 9.89743 9.67801 9.83805L1 5.47328Z" stroke="#1B1A39" stroke-width="1.5" stroke-linecap="round" stroke-linejoin="round"/>
</svg>
