<svg width="15" height="21" viewBox="0 0 15 21" fill="none" xmlns="http://www.w3.org/2000/svg">
<path d="M3.28879 0.000164977C2.76581 -0.00341135 2.25368 0.149318 1.81808 0.43876C1.38248 0.728202 1.04327 1.14116 0.843954 1.62469C0.644635 2.10821 0.594293 2.64025 0.699384 3.15258C0.804475 3.6649 1.06021 4.13416 1.43379 4.50016L7.08379 10.1202L1.43379 15.7652C0.970107 16.2628 0.717675 16.9209 0.729674 17.601C0.741673 18.281 1.01716 18.9299 1.49811 19.4108C1.97906 19.8918 2.6279 20.1673 3.30796 20.1793C3.98801 20.1913 4.64617 19.9388 5.14379 19.4752L14.1438 10.4752C14.1907 10.4287 14.2278 10.3734 14.2532 10.3125C14.2786 10.2515 14.2917 10.1862 14.2917 10.1202C14.2917 10.0542 14.2786 9.98881 14.2532 9.92788C14.2278 9.86695 14.1907 9.81165 14.1438 9.76517L5.14379 0.765166C4.65085 0.275041 3.98392 -2.80848e-06 3.28879 0.000164977Z" fill="#1B1A39"/>
</svg>
