<svg width="15" height="21" viewBox="0 0 15 21" fill="none" xmlns="http://www.w3.org/2000/svg">
<path d="M11.6487 20.1796C12.1717 20.1832 12.6839 20.0305 13.1195 19.741C13.555 19.4516 13.8943 19.0386 14.0936 18.5551C14.2929 18.0716 14.3432 17.5395 14.2381 17.0272C14.1331 16.5149 13.8773 16.0456 13.5037 15.6796L7.85374 10.0596L13.5037 4.41462C13.9674 3.91701 14.2199 3.25885 14.2079 2.57879C14.1959 1.89874 13.9204 1.24989 13.4394 0.768947C12.9585 0.288002 12.3096 0.0125098 11.6296 0.000511007C10.9495 -0.0114877 10.2914 0.240943 9.79374 0.704624L0.793741 9.70462C0.746877 9.75111 0.70968 9.80641 0.684295 9.86734C0.658911 9.92826 0.645842 9.99362 0.645842 10.0596C0.645842 10.1256 0.658911 10.191 0.684295 10.2519C0.70968 10.3128 0.746877 10.3681 0.793741 10.4146L9.79374 19.4146C10.2867 19.9047 10.9536 20.1798 11.6487 20.1796Z" fill="#1B1A39"/>
</svg>
