<svg width="15" height="15" viewBox="0 0 15 15" fill="none" xmlns="http://www.w3.org/2000/svg">
<path d="M13.4428 13.6637H8.06215M1 14L4.73235 12.5645C4.97107 12.4727 5.09044 12.4268 5.20211 12.3668C5.30131 12.3136 5.39587 12.2521 5.48482 12.1831C5.58495 12.1054 5.67538 12.015 5.85624 11.8341L13.4428 4.24753C14.1857 3.50461 14.1857 2.3001 13.4428 1.55719C12.6999 0.814272 11.4954 0.814271 10.7525 1.55719L3.16591 9.14375C2.98505 9.32461 2.89462 9.41504 2.81691 9.51518C2.74789 9.60412 2.68644 9.69869 2.63319 9.79788C2.57325 9.90956 2.52734 10.0289 2.43552 10.2677L1 14ZM1 14L2.38426 10.401C2.48331 10.1434 2.53284 10.0147 2.61779 9.95567C2.69203 9.90412 2.7839 9.88463 2.87267 9.90158C2.97426 9.92098 3.07182 10.0185 3.26693 10.2137L4.78636 11.7331C4.98148 11.9282 5.07903 12.0258 5.09843 12.1273C5.11539 12.2161 5.09589 12.308 5.04434 12.3822C4.98536 12.4672 4.85659 12.5167 4.59904 12.6158L1 14Z" stroke="#80858B" stroke-width="1.5" stroke-linecap="round" stroke-linejoin="round"/>
</svg>
