<svg width="14" height="17" viewBox="0 0 14 17" fill="none" xmlns="http://www.w3.org/2000/svg">
<path d="M8.5 1.20215V4.30005C8.5 4.72009 8.5 4.93011 8.58175 5.09055C8.65365 5.23167 8.76839 5.3464 8.90951 5.41831C9.06994 5.50005 9.27996 5.50005 9.7 5.50005H12.7979M4.75 11.5L6.25 13L9.625 9.625M8.5 1H4.6C3.33988 1 2.70982 1 2.22852 1.24524C1.80516 1.46095 1.46095 1.80516 1.24524 2.22852C1 2.70982 1 3.33988 1 4.6V12.4C1 13.6601 1 14.2902 1.24524 14.7715C1.46095 15.1948 1.80516 15.539 2.22852 15.7548C2.70982 16 3.33988 16 4.6 16H9.4C10.6601 16 11.2902 16 11.7715 15.7548C12.1948 15.539 12.539 15.1948 12.7548 14.7715C13 14.2902 13 13.6601 13 12.4V5.5L8.5 1Z" stroke="black" stroke-width="1.5" stroke-linecap="round" stroke-linejoin="round"/>
</svg>
