<svg width="17" height="19" viewBox="0 0 17 19" fill="none" xmlns="http://www.w3.org/2000/svg">
<path d="M11.5862 4.34485V3.6552C11.5862 2.68959 11.5862 2.20678 11.4171 1.83797C11.2683 1.51355 11.0309 1.24979 10.7389 1.0845C10.407 0.896576 9.97249 0.896576 9.10345 0.896576H7.86207C6.99302 0.896576 6.5585 0.896576 6.22657 1.0845C5.93459 1.24979 5.69721 1.51355 5.54844 1.83797C5.37931 2.20678 5.37931 2.68959 5.37931 3.6552V4.34485M6.93103 9.08623V13.3966M10.0345 9.08623V13.3966M1.5 4.34485H15.4655M13.9138 4.34485V14C13.9138 15.4484 13.9138 16.1726 13.6601 16.7259C13.4369 17.2125 13.0809 17.6081 12.6429 17.8561C12.145 18.138 11.4932 18.138 10.1897 18.138H6.77586C5.47229 18.138 4.82051 18.138 4.32261 17.8561C3.88464 17.6081 3.52857 17.2125 3.30542 16.7259C3.05172 16.1726 3.05172 15.4484 3.05172 14V4.34485" stroke="white" stroke-width="1.5" stroke-linecap="round" stroke-linejoin="round"/>
</svg>
