<svg width="14" height="17" viewBox="0 0 14 17" fill="none" xmlns="http://www.w3.org/2000/svg">
<path d="M9.88889 4V3.4C9.88889 2.55992 9.88889 2.13988 9.73145 1.81901C9.59297 1.53677 9.372 1.3073 9.10021 1.16349C8.79122 1 8.38674 1 7.57778 1H6.42222C5.61326 1 5.20878 1 4.89979 1.16349C4.628 1.3073 4.40703 1.53677 4.26855 1.81901C4.11111 2.13988 4.11111 2.55992 4.11111 3.4V4M5.55556 8.125V11.875M8.44444 8.125V11.875M0.5 4H13.5M12.0556 4V12.4C12.0556 13.6601 12.0556 14.2902 11.8194 14.7715C11.6117 15.1948 11.2802 15.539 10.8725 15.7548C10.4091 16 9.80234 16 8.58889 16H5.41111C4.19766 16 3.59094 16 3.12747 15.7548C2.71978 15.539 2.38832 15.1948 2.1806 14.7715C1.94444 14.2902 1.94444 13.6601 1.94444 12.4V4" stroke="#FEB325" stroke-linecap="round" stroke-linejoin="round"/>
</svg>
