<svg width="54" height="54" viewBox="0 0 54 54" fill="none" xmlns="http://www.w3.org/2000/svg">
<path d="M23.2666 39.2667L42.0666 20.4667L38.3333 16.7333L23.2666 31.8L15.6666 24.2L11.9333 27.9333L23.2666 39.2667ZM27 53.6667C23.3111 53.6667 19.8444 52.9662 16.6 51.5653C13.3555 50.1662 10.5333 48.2667 8.13331 45.8667C5.73331 43.4667 3.83376 40.6445 2.43465 37.4C1.03376 34.1556 0.333313 30.6889 0.333313 27C0.333313 23.3111 1.03376 19.8445 2.43465 16.6C3.83376 13.3556 5.73331 10.5333 8.13331 8.13334C10.5333 5.73334 13.3555 3.8329 16.6 2.43201C19.8444 1.0329 23.3111 0.333344 27 0.333344C30.6889 0.333344 34.1555 1.0329 37.4 2.43201C40.6444 3.8329 43.4666 5.73334 45.8666 8.13334C48.2666 10.5333 50.1662 13.3556 51.5653 16.6C52.9662 19.8445 53.6666 23.3111 53.6666 27C53.6666 30.6889 52.9662 34.1556 51.5653 37.4C50.1662 40.6445 48.2666 43.4667 45.8666 45.8667C43.4666 48.2667 40.6444 50.1662 37.4 51.5653C34.1555 52.9662 30.6889 53.6667 27 53.6667Z" fill="#2EB062"/>
</svg>
