<svg width="17" height="9" viewBox="0 0 17 9" fill="none" xmlns="http://www.w3.org/2000/svg">
<path d="M1.2092 1.16581C0.932578 0.889189 0.484087 0.889189 0.207466 1.16581C-0.0691553 1.44243 -0.0691553 1.89092 0.207466 2.16755L1.48785 3.44792C1.69618 3.65624 1.91147 3.85337 2.13296 4.03931C2.12772 4.07402 2.125 4.10965 2.125 4.14584V5.20834C2.125 5.59956 2.44214 5.91668 2.83333 5.91668C3.22453 5.91668 3.54167 5.59956 3.54167 5.20834V5.02673C3.99895 5.29101 4.47283 5.51583 4.95833 5.70106V6.62501C4.95833 7.01622 5.27547 7.33334 5.66667 7.33334C6.05787 7.33334 6.375 7.01622 6.375 6.62501V6.12337C6.84259 6.22544 7.31616 6.29344 7.79167 6.3273V7.33334C7.79167 7.72456 8.10879 8.04168 8.5 8.04168C8.89121 8.04168 9.20833 7.72456 9.20833 7.33334V6.3273C9.68384 6.29344 10.1574 6.22544 10.625 6.12337V6.62501C10.625 7.01622 10.9421 7.33334 11.3333 7.33334C11.7245 7.33334 12.0417 7.01622 12.0417 6.62501V5.70106C12.5272 5.51583 13.001 5.29101 13.4583 5.02673V5.20834C13.4583 5.59956 13.7755 5.91668 14.1667 5.91668C14.5579 5.91668 14.875 5.59956 14.875 5.20834V4.14584C14.875 4.10965 14.8723 4.07402 14.8671 4.03931C15.0886 3.85337 15.3038 3.65624 15.5121 3.44792L16.7925 2.16755C17.0691 1.89092 17.0691 1.44243 16.7925 1.16581C16.5159 0.889189 16.0674 0.889189 15.7908 1.16581L14.5104 2.4462C11.191 5.76566 5.80905 5.76566 2.48959 2.4462L1.2092 1.16581Z" fill="#990000"/>
</svg>
