<svg width="16" height="16" viewBox="0 0 16 16" fill="none" xmlns="http://www.w3.org/2000/svg">
<path fill-rule="evenodd" clip-rule="evenodd" d="M8 6C8.27614 6 8.5 6.22386 8.5 6.5V9C8.5 9.27614 8.27614 9.5 8 9.5C7.72386 9.5 7.5 9.27614 7.5 9V6.5C7.5 6.22386 7.72386 6 8 6Z" fill="#990000"/>
<path fill-rule="evenodd" clip-rule="evenodd" d="M7.25056 1.70137C7.47822 1.56935 7.73672 1.49982 7.9999 1.49982C8.26307 1.49982 8.52157 1.56935 8.74923 1.70137C8.97651 1.83316 9.165 2.02257 9.29569 2.25047C9.29592 2.25085 9.29614 2.25124 9.29636 2.25163L14.7954 11.75C14.9268 11.9776 14.9961 12.2358 14.9964 12.4987C14.9966 12.7615 14.9278 13.0198 14.7967 13.2477C14.6657 13.4756 14.4771 13.665 14.2498 13.797C14.0225 13.9291 13.7645 13.999 13.5017 14L13.4999 14H2.4999L2.49814 14C2.23528 13.999 1.97728 13.9291 1.74999 13.797C1.52269 13.665 1.33409 13.4756 1.20306 13.2477C1.07203 13.0198 1.00319 12.7615 1.00342 12.4987C1.00365 12.2358 1.07295 11.9776 1.20439 11.75L6.70343 2.25163C6.70365 2.25124 6.70388 2.25085 6.7041 2.25047C6.83479 2.02257 7.02328 1.83316 7.25056 1.70137ZM7.13739 2.49997L7.57011 2.75049L2.07041 12.25C2.07037 12.25 2.07044 12.2499 2.07041 12.25C2.02667 12.3258 2.0035 12.412 2.00342 12.4995C2.00334 12.5872 2.02629 12.6733 2.06996 12.7492C2.11364 12.8252 2.17651 12.8883 2.25227 12.9323C2.32784 12.9762 2.41359 12.9995 2.50098 13H13.4988C13.5862 12.9995 13.672 12.9762 13.7475 12.9323C13.8233 12.8883 13.8862 12.8252 13.9298 12.7492C13.9735 12.6733 13.9965 12.5872 13.9964 12.4995C13.9963 12.412 13.9733 12.3261 13.9296 12.2503C13.9295 12.2502 13.9296 12.2504 13.9296 12.2503L8.42843 2.74833C8.38522 2.67283 8.32284 2.61008 8.24759 2.56644C8.17233 2.5228 8.08689 2.49982 7.9999 2.49982C7.91291 2.49982 7.82746 2.5228 7.75221 2.56644C7.67695 2.61008 7.61457 2.67282 7.57136 2.74832L7.13739 2.49997Z" fill="#990000"/>
<path d="M8 12C8.41421 12 8.75 11.6642 8.75 11.25C8.75 10.8358 8.41421 10.5 8 10.5C7.58579 10.5 7.25 10.8358 7.25 11.25C7.25 11.6642 7.58579 12 8 12Z" fill="#990000"/>
</svg>
