<svg width="17" height="9" viewBox="0 0 17 9" fill="none" xmlns="http://www.w3.org/2000/svg">
<path d="M1.2092 1.16578C0.932578 0.889158 0.484087 0.889158 0.207466 1.16578C-0.0691553 1.4424 -0.0691553 1.89089 0.207466 2.16752L1.48785 3.44789C1.69618 3.65621 1.91147 3.85334 2.13296 4.03928C2.12772 4.07399 2.125 4.10962 2.125 4.14581V5.20831C2.125 5.59953 2.44214 5.91665 2.83333 5.91665C3.22453 5.91665 3.54167 5.59953 3.54167 5.20831V5.0267C3.99895 5.29098 4.47283 5.5158 4.95833 5.70103V6.62498C4.95833 7.01619 5.27547 7.33331 5.66667 7.33331C6.05787 7.33331 6.375 7.01619 6.375 6.62498V6.12334C6.84259 6.22541 7.31616 6.29341 7.79167 6.32727V7.33331C7.79167 7.72453 8.10879 8.04165 8.5 8.04165C8.89121 8.04165 9.20833 7.72453 9.20833 7.33331V6.32727C9.68384 6.29341 10.1574 6.22541 10.625 6.12334V6.62498C10.625 7.01619 10.9421 7.33331 11.3333 7.33331C11.7245 7.33331 12.0417 7.01619 12.0417 6.62498V5.70103C12.5272 5.5158 13.001 5.29098 13.4583 5.0267V5.20831C13.4583 5.59953 13.7755 5.91665 14.1667 5.91665C14.5579 5.91665 14.875 5.59953 14.875 5.20831V4.14581C14.875 4.10962 14.8723 4.07399 14.8671 4.03928C15.0886 3.85334 15.3038 3.65621 15.5121 3.44789L16.7925 2.16752C17.0691 1.89089 17.0691 1.4424 16.7925 1.16578C16.5159 0.889158 16.0674 0.889158 15.7908 1.16578L14.5104 2.44617C11.191 5.76563 5.80905 5.76563 2.48959 2.44617L1.2092 1.16578Z" fill="#A5A5A5"/>
</svg>
