<svg width="20" height="20" viewBox="0 0 20 20" fill="none" xmlns="http://www.w3.org/2000/svg">
<path d="M10 13.75C11.4531 13.75 12.4688 13.0664 13.0625 12.4258C13.4102 12.0469 14.0039 12.0195 14.3867 12.3711C14.7656 12.7227 14.7891 13.3164 14.4375 13.6953C13.582 14.6289 12.0977 15.625 10 15.625C7.90234 15.625 6.41797 14.6289 5.5625 13.6953C5.21094 13.3164 5.19922 12.7227 5.61328 12.3711C5.99609 12.0195 6.58984 12.0469 6.9375 12.4258C7.53125 13.0664 8.54688 13.75 10 13.75ZM8.14062 8.125C8.14062 8.81641 7.57812 9.375 6.89062 9.375C6.19922 9.375 5.64062 8.81641 5.64062 8.125C5.64062 7.43359 6.19922 6.875 6.89062 6.875C7.57812 6.875 8.14062 7.43359 8.14062 8.125ZM11.8906 8.125C11.8906 7.43359 12.4492 6.875 13.1406 6.875C13.8281 6.875 14.3906 7.43359 14.3906 8.125C14.3906 8.81641 13.8281 9.375 13.1406 9.375C12.4492 9.375 11.8906 8.81641 11.8906 8.125ZM20 10C20 15.5234 15.5234 20 10 20C4.47656 20 0 15.5234 0 10C0 4.47656 4.47656 0 10 0C15.5234 0 20 4.47656 20 10ZM10 1.875C5.51172 1.875 1.875 5.51172 1.875 10C1.875 14.4883 5.51172 18.125 10 18.125C14.4883 18.125 18.125 14.4883 18.125 10C18.125 5.51172 14.4883 1.875 10 1.875Z" fill="#999999"/>
</svg>
