<svg width="17" height="13" viewBox="0 0 17 13" fill="none" xmlns="http://www.w3.org/2000/svg">
<path d="M1 2.86078L7.12369 6.79015C7.61957 7.10833 7.86751 7.26743 8.1372 7.32905C8.37542 7.38349 8.62458 7.38349 8.8628 7.32905C9.13249 7.26743 9.38043 7.10834 9.87631 6.79015L16 2.86078M4.6 11.7983H12.4C13.6601 11.7983 14.2902 11.7983 14.7715 11.5735C15.1948 11.3757 15.539 11.0602 15.7548 10.6721C16 10.2309 16 9.65339 16 8.49828V4.09828C16 2.94317 16 2.36562 15.7548 1.92442C15.539 1.53634 15.1948 1.22082 14.7715 1.02308C14.2902 0.798279 13.6601 0.798279 12.4 0.798279H4.6C3.33988 0.798279 2.70982 0.798279 2.22852 1.02308C1.80516 1.22082 1.46095 1.53634 1.24524 1.92442C1 2.36562 1 2.94317 1 4.09828V8.49828C1 9.65339 1 10.2309 1.24524 10.6721C1.46095 11.0602 1.80516 11.3757 2.22852 11.5735C2.70982 11.7983 3.33988 11.7983 4.6 11.7983Z" stroke="#ECE050" stroke-width="1.5" stroke-linecap="round" stroke-linejoin="round"/>
</svg>
