<svg width="16" height="18" viewBox="0 0 16 18" fill="none" xmlns="http://www.w3.org/2000/svg">
<path d="M10.7014 4.35625V3.71625C10.7014 2.82017 10.7014 2.37212 10.544 2.02987C10.4055 1.72881 10.1845 1.48404 9.91271 1.33064C9.60372 1.15625 9.19924 1.15625 8.39028 1.15625H7.23472C6.42576 1.15625 6.02128 1.15625 5.71229 1.33064C5.4405 1.48404 5.21953 1.72881 5.08105 2.02987C4.92361 2.37212 4.92361 2.82017 4.92361 3.71625V4.35625M6.36806 8.75625V12.7563M9.25694 8.75625V12.7563M1.3125 4.35625H14.3125M12.8681 4.35625V13.3163C12.8681 14.6604 12.8681 15.3324 12.6319 15.8458C12.4242 16.2974 12.0927 16.6646 11.685 16.8947C11.2216 17.1563 10.6148 17.1563 9.40139 17.1563H6.22361C5.01016 17.1563 4.40344 17.1563 3.93997 16.8947C3.53228 16.6646 3.20082 16.2974 2.9931 15.8458C2.75694 15.3324 2.75694 14.6604 2.75694 13.3163V4.35625" stroke="#1B1A39" stroke-width="1.5" stroke-linecap="round" stroke-linejoin="round"/>
</svg>
