<svg width="117" height="117" viewBox="0 0 117 117" fill="none" xmlns="http://www.w3.org/2000/svg">
<path d="M59.8697 85.7722C75.6793 85.7722 88.5238 73.6462 89.0704 58.4966C88.5238 43.3469 75.6793 31.2209 59.8697 31.2209C44.0619 31.2209 31.2139 43.3469 30.6746 58.4966C31.212 73.6462 44.0601 85.7722 59.8697 85.7722Z" fill="#C9DBC9"/>
<path d="M59.8693 18.2812C37.6575 18.2812 19.6487 36.2883 19.6487 58.5C19.6487 80.7099 37.6594 98.7188 59.8693 98.7188C82.0791 98.7188 100.088 80.7099 100.088 58.5C100.088 36.2883 82.0791 18.2812 59.8693 18.2812ZM59.8674 87.75C43.7123 87.75 30.6156 75.0975 30.6156 59.4854C30.6156 59.1526 30.6613 58.8291 30.6723 58.5C30.6613 58.1709 30.6156 57.8455 30.6156 57.5146C30.6156 41.9025 43.7141 29.25 59.8674 29.25C76.0226 29.25 89.1174 41.9025 89.1174 57.5146C89.1174 57.8455 89.079 58.1709 89.0699 58.5C89.0809 58.8291 89.1174 59.1526 89.1174 59.4854C89.1156 75.0975 76.0226 87.75 59.8674 87.75Z" fill="#C9DBC9"/>
<path d="M6.36448 13.5667C6.80323 11.8464 7.67159 13.5466 7.67159 13.5466C7.67159 13.5466 7.97506 31.3525 9.94944 31.5463C11.9238 31.7401 10.4028 13.2248 12.7392 12.8702C14.911 12.5247 13.6715 31.8406 15.6495 31.645C17.6203 31.4366 17.953 13.638 17.953 13.638C17.953 13.638 18.8305 11.9397 19.2637 13.6471C24.6165 34.6888 20.2857 43.2902 20.2857 43.2902C20.2857 43.2902 19.5544 45.0982 17.8177 45.1073C17.655 45.0982 17.7775 95.0809 17.7665 101.801C17.7702 105.068 7.71181 104.967 7.7173 101.715C7.72461 94.995 7.92022 45.0177 7.763 45.0214C6.0208 45.0214 5.29138 43.2152 5.29138 43.2152C5.29138 43.2152 0.977 34.6194 6.36448 13.5667ZM101.681 12.797C103.944 12.7916 113.334 19.5611 113.345 44.7198C113.355 52.7653 108.966 52.7635 108.973 57.7963C108.981 62.82 109.008 102.779 109.008 102.779C109.008 102.779 104.193 106.083 100.613 102.626L100.548 13.5118C100.551 13.5137 100.539 12.7952 101.681 12.797Z" fill="#C9DBC9"/>
</svg>
