<svg width="66" height="28" viewBox="0 0 66 28" fill="none" xmlns="http://www.w3.org/2000/svg">
<path d="M4.37225 11.3123C3.47004 11.3123 2.63723 11.1743 1.87382 10.9674C1.11041 10.6915 0.416404 10.4156 0 10.0017L0.694007 8.41523C1.11041 8.76011 1.66562 9.03602 2.35962 9.31193C2.98423 9.51886 3.67824 9.65682 4.37225 9.65682C4.92745 9.65682 5.41326 9.58784 5.76026 9.44989C6.10726 9.31193 6.38486 9.17398 6.52367 8.96705C6.66247 8.76011 6.80127 8.48421 6.80127 8.2083C6.80127 7.86341 6.66247 7.5875 6.45427 7.38057C6.17666 7.17364 5.89906 7.03568 5.48266 6.89773C5.06625 6.75977 4.64985 6.6908 4.16404 6.55284C3.67824 6.41489 3.19243 6.34591 2.77603 6.20795C2.29022 6.07 1.87382 5.86307 1.45741 5.65614C1.04101 5.44921 0.763411 5.10432 0.485808 4.75943C0.208205 4.34557 0.138805 3.86273 0.138805 3.31091C0.138805 2.69011 0.277604 2.1383 0.624607 1.65545C0.971611 1.17261 1.45741 0.75875 2.08202 0.482841C2.77603 0.206932 3.60883 0 4.58044 0C5.27445 0 5.89906 0.0689773 6.59307 0.275909C7.21767 0.413864 7.84228 0.689773 8.32808 1.03466L7.70348 2.62114C7.21767 2.34523 6.66247 2.1383 6.17666 1.93136C5.62146 1.79341 5.13565 1.72443 4.64985 1.72443C4.09464 1.72443 3.60884 1.79341 3.26184 1.93136C2.98423 1.93136 2.70663 2.1383 2.56783 2.34523C2.42903 2.55216 2.29023 2.82807 2.29023 3.10398C2.29023 3.44886 2.42903 3.72477 2.63723 3.9317C2.84543 4.13864 3.19244 4.27659 3.60884 4.41455C4.02524 4.5525 4.44164 4.62148 4.92745 4.75943C5.41325 4.89739 5.89906 4.96636 6.38487 5.10432C6.87067 5.24227 7.28707 5.44921 7.70348 5.65614C8.11988 5.86307 8.39748 6.20795 8.67509 6.55284C8.88329 6.96671 9.02209 7.38057 9.02209 8.00136C9.02209 8.62216 8.88329 9.105 8.53629 9.65682C8.18928 10.1397 7.70348 10.5535 7.07887 10.8294C6.24607 11.1743 5.41326 11.3123 4.37225 11.3123Z" fill="#1B1A37"/>
<path d="M11.104 11.1744V0.0690918H15.6844C16.6561 0.0690918 17.4889 0.207046 18.2523 0.551933C18.9463 0.896819 19.5015 1.31068 19.9179 1.93148C20.3343 2.55227 20.4731 3.24205 20.4731 4.06977C20.4731 4.8975 20.2649 5.58727 19.9179 6.20807C19.5015 6.82886 19.0157 7.24273 18.2523 7.58762C17.5583 7.9325 16.7255 8.07046 15.6844 8.07046H12.2144L13.1166 7.10477V11.2434H11.104V11.1744ZM13.186 7.17375L12.2838 6.20807H15.615C16.5173 6.20807 17.2113 6.00114 17.6971 5.65625C18.1829 5.24239 18.3911 4.75955 18.3911 4.0008C18.3911 3.31102 18.1829 2.75921 17.6971 2.34534C17.2113 1.93148 16.5173 1.79352 15.615 1.79352H12.2838L13.186 0.758865V7.17375Z" fill="#1B1A37"/>
<path d="M24.7759 9.45H31.0914V11.1744H22.7633V0.0690918H30.8832V1.79352H24.8453V9.45H24.7759ZM24.5677 4.69057H30.1198V6.415H24.5677V4.69057Z" fill="#1B1A37"/>
<path d="M35.6026 9.45H41.918V11.1744H33.59V0.0690918H41.7098V1.79352H35.672V9.45H35.6026ZM35.3944 4.69057H40.9464V6.415H35.3944V4.69057Z" fill="#1B1A37"/>
<path d="M49.4826 11.3123C48.6497 11.3123 47.8169 11.1743 47.1229 10.8984C46.4289 10.6225 45.7349 10.2086 45.2491 9.7258C44.6939 9.24296 44.2775 8.62216 43.9999 7.93239C43.7223 7.24261 43.5835 6.48386 43.5835 5.65614C43.5835 4.82841 43.7223 4.06966 43.9999 3.37989C44.2775 2.69011 44.6939 2.06932 45.2491 1.58648C45.8043 1.10364 46.4289 0.689773 47.1229 0.413864C47.8169 0.137955 48.6497 0 49.4826 0C50.3848 0 51.2176 0.137955 51.981 0.482841C52.7444 0.827727 53.369 1.24159 53.9242 1.86239L52.6056 3.10398C52.1892 2.69011 51.7728 2.34523 51.2176 2.1383C50.6624 1.93136 50.1766 1.79341 49.6214 1.79341C49.0662 1.79341 48.511 1.86239 48.0251 2.06932C47.5393 2.27625 47.1229 2.48318 46.7759 2.82807C46.4289 3.17295 46.1513 3.58682 45.9431 4.06966C45.7349 4.5525 45.6655 5.03534 45.6655 5.65614C45.6655 6.27693 45.7349 6.75977 45.9431 7.24261C46.1513 7.72546 46.4289 8.13932 46.7759 8.48421C47.1229 8.82909 47.5393 9.105 48.0251 9.31193C48.511 9.51886 49.0662 9.58784 49.6214 9.58784C50.1766 9.58784 50.7318 9.44989 51.2176 9.24296C51.7034 9.03602 52.1892 8.69114 52.6056 8.27727L53.9242 9.51886C53.4384 10.1397 52.7444 10.5535 51.981 10.8984C51.287 11.1743 50.3848 11.3123 49.4826 11.3123Z" fill="#1B1A37"/>
<path d="M58.1579 11.1744H56.0759V0.0690918H58.1579V11.1744ZM64.057 6.415H57.9498V4.62159H64.057V6.415ZM63.9182 0.0690918H66.0002V11.1744H63.9182V0.0690918Z" fill="#1B1A37"/>
<path d="M2.98418 25.5217H9.29964V27.2461H0.971558V16.1407H9.09144V17.8652H3.05358V25.5217H2.98418ZM2.84537 20.7622H8.39743V22.4867H2.84537V20.7622Z" fill="#1B1A37"/>
<path d="M10.5488 27.2461L15.2681 20.8312V22.3487L10.8264 16.1407H13.1861L16.5173 20.7622H15.5457L18.8075 16.1407H21.0283L16.5867 22.2107V20.7622L21.3059 27.2461H18.9463L15.4763 22.3487H16.4479L12.9779 27.2461H10.5488Z" fill="#1B1A37"/>
<path d="M22.9718 27.2461V16.1407H27.5523C28.5239 16.1407 29.3567 16.2787 30.1201 16.6236C30.8141 16.9685 31.3693 17.3823 31.7857 18.0031C32.2021 18.6239 32.3409 19.3137 32.3409 20.1414C32.3409 20.9692 32.1327 21.6589 31.7857 22.2797C31.3693 22.9005 30.8835 23.3144 30.1201 23.6593C29.4261 24.0042 28.5933 24.1421 27.5523 24.1421H24.0822L24.9844 23.1764V27.3151H22.9718V27.2461ZM25.0538 23.3144L24.1516 22.3487H27.4828C28.3851 22.3487 29.0791 22.1418 29.5649 21.7969C30.0507 21.383 30.2589 20.9002 30.2589 20.1414C30.2589 19.4517 30.0507 18.8998 29.5649 18.486C29.0791 18.0721 28.3851 17.9342 27.4828 17.9342H24.1516L25.0538 16.8995V23.3144Z" fill="#1B1A37"/>
<path d="M36.8516 25.5217H43.1671V27.2461H34.839V16.1407H42.9589V17.8652H36.921V25.5217H36.8516ZM36.6434 20.7622H42.1955V22.4867H36.6434V20.7622Z" fill="#1B1A37"/>
<path d="M45.8046 27.2461V16.1407H50.385C51.3566 16.1407 52.1894 16.2787 52.9528 16.6236C53.6468 16.9685 54.202 17.3823 54.6185 18.0031C55.0349 18.6239 55.1737 19.3137 55.1737 20.1414C55.1737 20.9692 54.9655 21.6589 54.6185 22.2107C54.202 22.7626 53.7162 23.2454 52.9528 23.5903C52.2588 23.9352 51.426 24.0731 50.385 24.0731H46.915L47.8172 23.1075V27.2461H45.8046ZM47.8866 23.3144L46.9844 22.3487H50.3156C51.2178 22.3487 51.9118 22.1418 52.3976 21.7969C52.8834 21.383 53.0916 20.8312 53.0916 20.1414C53.0916 19.4517 52.8834 18.8998 52.3976 18.486C51.9118 18.0721 51.2178 17.9342 50.3156 17.9342H46.9844L47.8866 16.8995V23.3144ZM53.0916 27.2461L50.2462 23.2454H52.467L55.3125 27.2461H53.0916Z" fill="#1B1A37"/>
<path d="M59.9622 27.2461V17.9341H56.2839V16.2097H65.7224V17.9341H62.0442V27.2461H59.9622Z" fill="#1B1A37"/>
</svg>
