<svg width="41" height="18" viewBox="0 0 41 18" fill="none" xmlns="http://www.w3.org/2000/svg">
<path d="M0 0.349423H2.62941V11.7198H6.46083V14.2413H0V0.349423Z" fill="#206A3E"/>
<path d="M7.05245 3.96642H9.67247L12.3301 10.4166L15.26 3.96642H17.8894L11.4849 18H8.83669L10.9402 13.4764L7.05245 3.96642Z" fill="#206A3E"/>
<path d="M19.3449 3.96642H21.8992V5.01469C22.4814 4.52361 23.0073 4.18363 23.4769 3.99475C23.9527 3.79958 24.4379 3.70199 24.9324 3.70199C25.9466 3.70199 26.8075 4.05771 27.5149 4.76915C28.1096 5.37356 28.407 6.26758 28.407 7.45121V14.2413H25.8715V9.73662C25.8715 8.50892 25.8152 7.6936 25.7025 7.29066C25.596 6.88772 25.4051 6.58237 25.1296 6.37461C24.8604 6.16055 24.5255 6.05352 24.1248 6.05352C23.6052 6.05352 23.1576 6.2298 22.782 6.58237C22.4126 6.92865 22.1559 7.41028 22.0119 8.02728C21.9368 8.34837 21.8992 9.04407 21.8992 10.1144V14.2413H19.3449V3.96642Z" fill="#206A3E"/>
<path d="M30.9143 0H33.478V8.20672L37.2531 3.96642H40.4647L36.0699 8.89612L41 14.2413H37.8165L33.478 9.50997V14.2413H30.9143V0Z" fill="#206A3E"/>
</svg>
