<svg width="170" height="60" viewBox="0 0 170 60" fill="none" xmlns="http://www.w3.org/2000/svg">
<path d="M66.9375 14.5234H73.5V42.7422H83.0625V49H66.9375V14.5234ZM84.5391 23.5H91.0781L97.7109 39.5078L105.023 23.5H111.586L95.6016 58.3281H88.9922L94.2422 47.1016L84.5391 23.5ZM115.219 23.5H121.594V26.1016C123.047 24.8828 124.359 24.0391 125.531 23.5703C126.719 23.0859 127.93 22.8438 129.164 22.8438C131.695 22.8438 133.844 23.7266 135.609 25.4922C137.094 26.9922 137.836 29.2109 137.836 32.1484V49H131.508V37.8203C131.508 34.7734 131.367 32.75 131.086 31.75C130.82 30.75 130.344 29.9922 129.656 29.4766C128.984 28.9453 128.148 28.6797 127.148 28.6797C125.852 28.6797 124.734 29.1172 123.797 29.9922C122.875 30.8516 122.234 32.0469 121.875 33.5781C121.688 34.375 121.594 36.1016 121.594 38.7578V49H115.219V23.5ZM144.094 13.6562H150.492V34.0234L159.914 23.5H167.93L156.961 35.7344L169.266 49H161.32L150.492 37.2578V49H144.094V13.6562Z" fill="#2EB062"/>
<path d="M42.71 39.53C45.061 37.046 46.6326 33.9274 47.2305 30.5599C47.8284 27.1924 47.4264 23.7235 46.0743 20.5819C44.7221 17.4404 42.479 14.7639 39.6222 12.8834C36.7654 11.0028 33.4202 10.0006 30 10.0006C26.5798 10.0006 23.2346 11.0028 20.3778 12.8834C17.521 14.7639 15.2779 17.4404 13.9257 20.5819C12.5736 23.7235 12.1716 27.1924 12.7695 30.5599C13.3674 33.9274 14.939 37.046 17.29 39.53C18.6392 37.3771 20.5134 35.6025 22.7367 34.3728C24.9599 33.143 27.4593 32.4986 30 32.5C32.5407 32.4986 35.0401 33.143 37.2633 34.3728C39.4866 35.6025 41.3608 37.3771 42.71 39.53V39.53ZM30 59.32L14.09 43.41C10.9433 40.2633 8.80046 36.2542 7.93231 31.8896C7.06417 27.525 7.50976 23.0011 9.21274 18.8897C10.9157 14.7784 13.7996 11.2644 17.4997 8.7921C21.1998 6.31978 25.5499 5.00018 30 5.00018C34.4501 5.00018 38.8002 6.31978 42.5003 8.7921C46.2004 11.2644 49.0843 14.7784 50.7873 18.8897C52.4902 23.0011 52.9358 27.525 52.0677 31.8896C51.1995 36.2542 49.0567 40.2633 45.91 43.41L30 59.32ZM30 30C28.0109 30 26.1032 29.2098 24.6967 27.8033C23.2902 26.3968 22.5 24.4891 22.5 22.5C22.5 20.5109 23.2902 18.6032 24.6967 17.1967C26.1032 15.7902 28.0109 15 30 15C31.9891 15 33.8968 15.7902 35.3033 17.1967C36.7098 18.6032 37.5 20.5109 37.5 22.5C37.5 24.4891 36.7098 26.3968 35.3033 27.8033C33.8968 29.2098 31.9891 30 30 30Z" fill="#2EB062"/>
</svg>
