<svg width="108" height="36" viewBox="0 0 108 36" fill="none" xmlns="http://www.w3.org/2000/svg">
<path d="M54.4696 10.3289C53.6861 10.3289 52.9629 10.2091 52.3 10.0294C51.637 9.78977 51.0343 9.55017 50.6727 9.19077L51.2754 7.81307C51.637 8.11257 52.1192 8.35217 52.7218 8.59177C53.2642 8.77147 53.8669 8.89127 54.4696 8.89127C54.9517 8.89127 55.3736 8.83137 55.675 8.71157C55.9763 8.59177 56.2174 8.47197 56.3379 8.29227C56.4584 8.11257 56.579 7.87297 56.579 7.63337C56.579 7.33387 56.4584 7.09427 56.2776 6.91457C56.0366 6.73487 55.7955 6.61507 55.4339 6.49527C55.0723 6.37547 54.7107 6.31557 54.2888 6.19577C53.8669 6.07596 53.4451 6.01606 53.0834 5.89626C52.6616 5.77646 52.3 5.59676 51.9384 5.41706C51.5767 5.23736 51.3357 4.93786 51.0946 4.63836C50.8535 4.27896 50.7933 3.85966 50.7933 3.38046C50.7933 2.84136 50.9138 2.36215 51.2151 1.94285C51.5165 1.52355 51.9384 1.16415 52.4808 0.92455C53.0834 0.68495 53.8067 0.505249 54.6504 0.505249C55.2531 0.505249 55.7955 0.565149 56.3982 0.74485C56.9406 0.86465 57.483 1.10425 57.9049 1.40375L57.3625 2.78146C56.9406 2.54185 56.4584 2.36215 56.0366 2.18245C55.5544 2.06265 55.1326 2.00275 54.7107 2.00275C54.2285 2.00275 53.8067 2.06265 53.5053 2.18245C53.2643 2.18245 53.0232 2.36215 52.9026 2.54185C52.7821 2.72156 52.6616 2.96116 52.6616 3.20076C52.6616 3.50026 52.7821 3.73986 52.9629 3.91956C53.1437 4.09926 53.4451 4.21906 53.8067 4.33886C54.1683 4.45866 54.5299 4.51856 54.9517 4.63836C55.3736 4.75816 55.7955 4.81806 56.2174 4.93786C56.6393 5.05766 57.0009 5.23736 57.3625 5.41706C57.7241 5.59676 57.9651 5.89626 58.2062 6.19577C58.387 6.55517 58.5076 6.91457 58.5076 7.45367C58.5076 7.99277 58.387 8.41207 58.0857 8.89127C57.7843 9.31057 57.3625 9.66998 56.8201 9.90958C56.0968 10.2091 55.3736 10.3289 54.4696 10.3289Z" fill="#1B1A37"/>
<path d="M60.3156 10.2091V0.565186H64.2933C65.137 0.565186 65.8602 0.684986 66.5232 0.984487C67.1259 1.28399 67.608 1.64339 67.9696 2.18249C68.3312 2.72159 68.4517 3.32059 68.4517 4.0394C68.4517 4.7582 68.2709 5.3572 67.9696 5.8963C67.608 6.4354 67.1861 6.7948 66.5232 7.0943C65.9205 7.3938 65.1973 7.51361 64.2933 7.51361H61.2799L62.0634 6.675V10.269H60.3156V10.2091ZM62.1236 6.7349L61.3401 5.8963H64.233C65.0165 5.8963 65.6192 5.7166 66.041 5.4171C66.4629 5.0577 66.6437 4.6384 66.6437 3.9795C66.6437 3.38049 66.4629 2.90129 66.041 2.54189C65.6192 2.18249 65.0165 2.06269 64.233 2.06269H61.3401L62.1236 1.16419V6.7349Z" fill="#1B1A37"/>
<path d="M72.1884 8.71161H77.6727V10.2091H70.4406V0.565186H77.4919V2.06269H72.2486V8.71161H72.1884ZM72.0075 4.5785H76.829V6.076H72.0075V4.5785Z" fill="#1B1A37"/>
<path d="M81.5901 8.71161H87.0745V10.2091H79.8424V0.565186H86.8937V2.06269H81.6504V8.71161H81.5901ZM81.4093 4.5785H86.2308V6.076H81.4093V4.5785Z" fill="#1B1A37"/>
<path d="M93.6437 10.3289C92.9205 10.3289 92.1973 10.2091 91.5946 9.96948C90.9919 9.72988 90.3892 9.37047 89.9674 8.95117C89.4852 8.53187 89.1236 7.99277 88.8825 7.39377C88.6415 6.79477 88.5209 6.13587 88.5209 5.41706C88.5209 4.69826 88.6415 4.03936 88.8825 3.44036C89.1236 2.84136 89.4852 2.30225 89.9674 1.88295C90.4495 1.46365 90.9919 1.10425 91.5946 0.86465C92.1973 0.625049 92.9205 0.505249 93.6437 0.505249C94.4272 0.505249 95.1504 0.625049 95.8133 0.92455C96.4763 1.22405 97.0187 1.58345 97.5009 2.12255L96.3558 3.20076C95.9941 2.84136 95.6325 2.54185 95.1504 2.36215C94.6683 2.18245 94.2464 2.06265 93.7642 2.06265C93.2821 2.06265 92.8 2.12255 92.3781 2.30225C91.9562 2.48195 91.5946 2.66166 91.2933 2.96116C90.9919 3.26066 90.7509 3.62006 90.57 4.03936C90.3892 4.45866 90.329 4.87796 90.329 5.41706C90.329 5.95616 90.3892 6.37547 90.57 6.79477C90.7509 7.21407 90.9919 7.57347 91.2933 7.87297C91.5946 8.17247 91.9562 8.41207 92.3781 8.59177C92.8 8.77147 93.2821 8.83137 93.7642 8.83137C94.2464 8.83137 94.7285 8.71157 95.1504 8.53187C95.5723 8.35217 95.9941 8.05267 96.3558 7.69327L97.5009 8.77147C97.079 9.31057 96.4763 9.66998 95.8133 9.96948C95.2107 10.2091 94.4272 10.3289 93.6437 10.3289Z" fill="#1B1A37"/>
<path d="M101.177 10.2091H99.3691V0.565186H101.177V10.2091ZM106.3 6.076H100.996V4.5186H106.3V6.076ZM106.179 0.565186H107.987V10.2091H106.179V0.565186Z" fill="#1B1A37"/>
<path d="M53.2642 22.6683H58.7486V24.1658H51.5165V14.5219H58.5678V16.0194H53.3245V22.6683H53.2642ZM53.1437 18.5352H57.9651V20.0327H53.1437V18.5352Z" fill="#1B1A37"/>
<path d="M59.8334 24.1658L63.9316 18.5951V19.9129L60.0745 14.5219H62.1236L65.0165 18.5352H64.1727L67.0053 14.5219H68.9339L65.0767 19.7931V18.5352L69.175 24.1658H67.1258L64.1125 19.9129H64.9562L61.9428 24.1658H59.8334Z" fill="#1B1A37"/>
<path d="M70.9875 24.6101V14.9662H74.9652C75.8089 14.9662 76.5321 15.086 77.1951 15.3855C77.7978 15.685 78.2799 16.0444 78.6415 16.5835C79.0031 17.1226 79.1236 17.7216 79.1236 18.4404C79.1236 19.1592 78.9428 19.7582 78.6415 20.2973C78.2799 20.8364 77.858 21.1958 77.1951 21.4953C76.5924 21.7948 75.8692 21.9146 74.9652 21.9146H71.9518L72.7353 21.076V24.67H70.9875V24.6101ZM72.7955 21.1958L72.012 20.3572H74.9049C75.6884 20.3572 76.2911 20.1775 76.7129 19.878C77.1348 19.5186 77.3156 19.0993 77.3156 18.4404C77.3156 17.8414 77.1348 17.3622 76.7129 17.0028C76.2911 16.6434 75.6884 16.5236 74.9049 16.5236H72.012L72.7955 15.6251V21.1958Z" fill="#1B1A37"/>
<path d="M82.6749 22.6683H88.1593V24.1658H80.9272V14.5219H87.9785V16.0194H82.7352V22.6683H82.6749ZM82.4941 18.5352H87.3156V20.0327H82.4941V18.5352Z" fill="#1B1A37"/>
<path d="M90.4495 24.1658V14.5219H94.4272C95.2709 14.5219 95.9942 14.6417 96.6571 14.9412C97.2598 15.2407 97.7419 15.6001 98.1035 16.1392C98.4651 16.6783 98.5857 17.2773 98.5857 17.9961C98.5857 18.7149 98.4049 19.3139 98.1035 19.7931C97.7419 20.2723 97.3201 20.6916 96.6571 20.9911C96.0544 21.2906 95.3312 21.4104 94.4272 21.4104H91.4138L92.1973 20.5718V24.1658H90.4495ZM92.2576 20.7515L91.4741 19.9129H94.3669C95.1504 19.9129 95.7531 19.7332 96.175 19.4337C96.5968 19.0743 96.7776 18.5951 96.7776 17.9961C96.7776 17.3971 96.5968 16.9179 96.175 16.5585C95.7531 16.1991 95.1504 16.0793 94.3669 16.0793H91.4741L92.2576 15.1808V20.7515ZM96.7776 24.1658L94.3067 20.6916H96.2352L98.7062 24.1658H96.7776Z" fill="#1B1A37"/>
<path d="M102.744 24.1658V16.0793H99.55V14.5818H107.746V16.0793H104.552V24.1658H102.744Z" fill="#1B1A37"/>
<path d="M36.6303 25.7831C36.4495 26.9212 36.2687 27.9994 36.0879 29.0776C35.8468 30.2157 35.6058 31.4137 35.3044 32.5518C34.8826 33.9894 33.5567 34.4686 32.291 33.5701C31.4473 32.9112 30.6035 32.1924 29.7598 31.5335C27.9518 30.036 26.1437 28.4786 24.3357 26.9811C24.1549 26.8014 23.8535 26.7415 23.6125 26.7415C22.4071 26.7415 21.1415 26.8613 19.9361 26.8613C18.3089 26.8613 16.6817 26.8014 14.9942 26.8014C14.6928 26.8014 14.4518 26.7415 14.1504 26.7415C11.137 26.7415 8.1839 26.5618 5.1705 26.1425C3.00086 25.7831 1.19283 24.3455 1.07229 22.0094C0.951754 19.6733 0.770951 17.2773 0.590147 14.9412C0.409343 12.9046 0.288808 10.8081 0.108004 8.77146C0.0477363 8.05265 -0.0727994 7.27395 0.108004 6.55515C0.590147 4.93785 1.55443 3.91954 3.1214 3.44034C5.77318 2.66164 8.42497 2.00274 11.137 1.52354C12.8848 1.22404 14.5723 0.984435 16.3201 0.804734C21.6839 0.205732 27.2888 -0.0937684 32.7129 0.0260319C35.425 0.0859321 38.137 0.385433 40.8491 0.684934C43.1995 0.924534 44.7062 2.66164 44.887 4.63834C45.0076 5.77645 45.0678 6.91455 45.1884 7.99275C45.3089 9.43036 45.4897 10.868 45.6102 12.3056C45.7308 13.6234 45.8513 15.0011 45.9718 16.3788C46.0321 17.2174 46.0924 18.1159 46.2129 18.9545C46.454 20.8713 45.55 22.7282 43.8625 23.5668C42.6571 24.1658 41.3915 24.5252 40.1259 24.9445C39.2218 25.244 38.2576 25.4237 37.2933 25.6633C37.1727 25.6034 36.9317 25.6633 36.6303 25.7831ZM32.4116 28.838C32.5321 28.5385 32.5321 28.4187 32.5924 28.2989C33.0745 26.6217 33.6169 24.8846 34.0991 23.2074C34.2196 22.6683 34.521 22.3688 35.0634 22.3089C35.7866 22.1891 36.5701 22.1292 37.2933 21.9495C38.8602 21.5901 40.4272 21.2307 41.9942 20.7515C42.8982 20.5119 43.1393 20.0926 43.1393 19.254C43.1393 18.8946 43.1393 18.4753 43.1393 18.1159C42.9585 15.7199 42.8379 13.3239 42.6571 10.9279C42.5968 9.78976 42.5366 8.65166 42.4763 7.51355C42.416 6.79475 42.3558 6.01605 42.2955 5.29725C42.175 3.97944 41.6326 3.50024 40.6683 3.44034C39.8245 3.38044 39.041 3.20074 38.1973 3.14084C36.0879 2.96114 33.9183 2.72154 31.8089 2.66164C27.7107 2.60174 23.6125 2.54184 19.5143 2.96114C17.7665 3.14084 15.9585 3.26064 14.2107 3.56014C12.4026 3.79974 10.6549 4.15914 8.90711 4.51854C7.09908 4.81805 5.41158 5.29725 3.72408 5.77645C2.75979 6.01605 2.39818 6.61505 2.45845 7.57345C2.51872 8.59175 2.57899 9.61006 2.69952 10.6284C2.82006 12.2457 3.00086 13.8031 3.1214 15.4204C3.24193 16.9179 3.36247 18.4753 3.483 19.9728C3.54327 20.6916 3.60354 21.4104 3.78434 22.1292C3.96515 22.9079 4.50756 23.3871 5.29104 23.447C5.83345 23.5069 6.31559 23.5668 6.858 23.5668C8.66604 23.6267 10.4138 23.7465 12.2218 23.7465C14.6326 23.6866 16.983 23.5668 19.3937 23.447C20.9607 23.3871 22.5276 23.2673 24.0343 23.0277C24.8781 22.9079 25.541 23.0876 26.1437 23.5668C28.012 25.1242 29.9406 26.7415 31.8089 28.3588C31.9294 28.4786 32.1102 28.5984 32.4116 28.838Z" fill="#1B1A37"/>
<path d="M19.6348 13.3837C19.5142 11.6466 21.1415 10.0892 23.0098 10.0892C24.5165 10.0892 26.445 11.5268 26.3245 13.5634C26.2642 15.2406 24.9986 16.858 22.9495 16.858C21.2017 16.858 19.5142 15.4802 19.6348 13.3837Z" fill="#1B1A37"/>
<path d="M34.3402 15.6001C32.1103 15.6001 30.9049 13.9228 30.9049 12.2456C30.9049 10.2689 32.5924 8.89124 34.2799 8.89124C36.2085 8.89124 37.7152 10.2689 37.7152 12.2456C37.7152 14.1026 36.2687 15.6001 34.3402 15.6001Z" fill="#1B1A37"/>
<path d="M14.9941 14.6416C14.9941 16.2589 13.7888 17.9362 11.6191 17.9961C9.57003 17.9961 8.24414 16.4386 8.24414 14.6416C8.24414 12.6649 10.0522 11.2872 11.5589 11.2872C13.4874 11.2872 14.9941 12.8446 14.9941 14.6416Z" fill="#1B1A37"/>
<path d="M51.7576 34.3489V28.299H52.7821V30.9945L52.7219 32.1326L52.7821 33.2707V34.289H51.7576V34.3489ZM54.1683 34.4088C53.8067 34.4088 53.4451 34.3489 53.204 34.1692C52.9027 33.9895 52.6616 33.7499 52.541 33.4504C52.3602 33.1509 52.3 32.7316 52.3 32.1925C52.3 31.6534 52.3602 31.2341 52.541 30.9346C52.7219 30.6351 52.9629 30.3356 53.2643 30.2158C53.5656 30.0361 53.8669 29.9762 54.2285 29.9762C54.6504 29.9762 55.012 30.096 55.3736 30.2757C55.675 30.4554 55.9763 30.695 56.1571 31.0544C56.3379 31.4138 56.4585 31.7732 56.4585 32.2524C56.4585 32.7316 56.3379 33.091 56.1571 33.4504C55.9763 33.8098 55.675 34.0494 55.3736 34.2291C54.9518 34.289 54.5902 34.4088 54.1683 34.4088ZM54.0477 33.5103C54.2888 33.5103 54.5299 33.4504 54.7107 33.3306C54.8915 33.2108 55.0723 33.091 55.1928 32.8514C55.3134 32.6717 55.3736 32.4321 55.3736 32.1326C55.3736 31.8331 55.3134 31.5935 55.1928 31.4138C55.0723 31.2341 54.9518 31.0544 54.7107 30.9346C54.5299 30.8148 54.2888 30.7549 54.0477 30.7549C53.8067 30.7549 53.5656 30.8148 53.3848 30.9346C53.204 31.0544 53.0232 31.1742 52.9027 31.4138C52.7821 31.5935 52.7219 31.8331 52.7219 32.1326C52.7219 32.4321 52.7821 32.6717 52.9027 32.8514C53.0232 33.0311 53.1437 33.2108 53.3848 33.3306C53.6259 33.4504 53.8067 33.5103 54.0477 33.5103Z" fill="#1B1A37"/>
<path d="M57.6036 35.9662C57.3625 35.9662 57.1817 35.9063 56.9406 35.8464C56.6995 35.7865 56.579 35.6667 56.3982 35.5469L56.8201 34.7682C56.9406 34.888 57.0611 34.9479 57.1817 35.0078C57.3022 35.0677 57.4227 35.0677 57.6036 35.0677C57.7844 35.0677 57.9652 35.0078 58.0254 34.9479C58.146 34.8281 58.2665 34.7083 58.3268 34.4687L58.5678 33.8697L58.6281 33.7499L60.2553 29.9163H61.2196L59.2911 34.7083C59.1705 35.0078 58.9897 35.3073 58.8089 35.487C58.6281 35.6667 58.4473 35.7865 58.2665 35.9063C58.0857 35.9662 57.8446 35.9662 57.6036 35.9662ZM58.5076 34.5286L56.5187 30.0361H57.6036L59.2308 33.8098L58.5076 34.5286Z" fill="#1B1A37"/>
<path d="M64.3535 34.3488V28.6583H65.4384V33.4503H68.4518V34.3488H64.3535Z" fill="#1B1A37"/>
<path d="M69.6571 29.2573C69.4763 29.2573 69.2955 29.1974 69.175 29.0776C69.0544 28.9578 68.9942 28.838 68.9942 28.6583C68.9942 28.4786 69.0544 28.3588 69.175 28.239C69.2955 28.1192 69.4763 28.0593 69.6571 28.0593C69.8379 28.0593 70.0187 28.1192 70.1393 28.239C70.2598 28.3588 70.3201 28.4786 70.3201 28.6583C70.3201 28.838 70.2598 29.0177 70.1393 29.1375C70.0187 29.1974 69.8982 29.2573 69.6571 29.2573ZM69.175 34.3488V29.9761H70.1995V34.3488H69.175Z" fill="#1B1A37"/>
<path d="M73.9964 29.9163C74.358 29.9163 74.6593 29.9762 74.9607 30.096C75.262 30.2158 75.4428 30.4554 75.6236 30.695C75.8044 30.9945 75.8647 31.3539 75.8647 31.7732V34.289H74.8401V31.9529C74.8401 31.5935 74.7196 31.294 74.5388 31.1143C74.358 30.9346 74.1169 30.8148 73.7553 30.8148C73.5143 30.8148 73.2732 30.8747 73.0924 30.9346C72.9116 31.0544 72.791 31.1742 72.6705 31.3539C72.55 31.5336 72.4897 31.7732 72.4897 32.0727V34.289H71.4651V29.9163H72.4294V31.1143L72.2486 30.7549C72.4294 30.4554 72.6102 30.2757 72.9116 30.096C73.2732 30.0361 73.6348 29.9163 73.9964 29.9163Z" fill="#1B1A37"/>
<path d="M78.2152 34.3488L76.3469 29.9761H77.4317L79.0589 33.8097H78.5165L80.204 29.9761H81.1683L79.3 34.3488H78.2152Z" fill="#1B1A37"/>
<path d="M83.7598 34.4087C83.2777 34.4087 82.8558 34.2889 82.4942 34.1092C82.1326 33.9295 81.8312 33.63 81.6504 33.3305C81.4696 32.9711 81.3491 32.6117 81.3491 32.1924C81.3491 31.7731 81.4696 31.3538 81.6504 31.0543C81.8312 30.6949 82.1326 30.4553 82.4339 30.2756C82.7955 30.0959 83.1571 29.9761 83.579 29.9761C84.0009 29.9761 84.3625 30.0959 84.7241 30.2756C85.0857 30.4553 85.3268 30.6949 85.5076 31.0543C85.6884 31.4137 85.8089 31.7731 85.8089 32.2523C85.8089 32.3122 85.8089 32.3721 85.8089 32.3721C85.8089 32.432 85.8089 32.4919 85.8089 32.5518H82.1326V31.8929H85.2665L84.8446 32.1325C84.8446 31.8929 84.7844 31.6533 84.6638 31.4736C84.5433 31.2939 84.4228 31.1142 84.2419 31.0543C84.0611 30.9345 83.8201 30.8746 83.579 30.8746C83.3379 30.8746 83.0969 30.9345 82.9161 31.0543C82.7353 31.1741 82.5544 31.2939 82.4942 31.5335C82.3736 31.7132 82.3134 31.9528 82.3134 32.1924V32.3721C82.3134 32.6117 82.3736 32.8513 82.4942 33.0909C82.6147 33.2706 82.7955 33.4503 82.9763 33.5701C83.2174 33.6899 83.4585 33.7498 83.7598 33.7498C84.0009 33.7498 84.242 33.6899 84.4228 33.63C84.6036 33.5701 84.7844 33.4503 84.9652 33.2706L85.5076 33.8696C85.3268 34.1092 85.0857 34.2889 84.7844 34.4087C84.483 34.3488 84.1214 34.4087 83.7598 34.4087Z" fill="#1B1A37"/>
<path d="M86.7732 34.3489V28.299H87.7977V34.3489H86.7732Z" fill="#1B1A37"/>
<path d="M91.1125 34.4087C90.6906 34.4087 90.2687 34.2889 89.9071 34.1092C89.5455 33.9295 89.3044 33.63 89.0634 33.3305C88.8826 32.9711 88.762 32.6117 88.762 32.1924C88.762 31.7731 88.8826 31.3538 89.0634 31.0543C89.2442 30.6949 89.5455 30.4553 89.9071 30.2756C90.2687 30.0959 90.6303 29.9761 91.1125 29.9761C91.5946 29.9761 91.9562 30.0959 92.3178 30.2756C92.6794 30.4553 92.9205 30.7548 93.1616 31.0543C93.3424 31.4137 93.4629 31.7731 93.4629 32.1924C93.4629 32.6117 93.3424 33.031 93.1616 33.3305C92.9808 33.6899 92.6794 33.9295 92.3178 34.1092C91.9562 34.2889 91.5946 34.4087 91.1125 34.4087ZM91.1125 33.5102C91.3535 33.5102 91.5946 33.4503 91.7754 33.3305C91.9562 33.2107 92.137 33.0909 92.2576 32.8513C92.3781 32.6716 92.4384 32.432 92.4384 32.1325C92.4384 31.833 92.3781 31.5934 92.2576 31.4137C92.137 31.234 92.0165 31.0543 91.7754 30.9345C91.5946 30.8147 91.3535 30.7548 91.1125 30.7548C90.8714 30.7548 90.6303 30.8147 90.4495 30.9345C90.2687 31.0543 90.0879 31.1741 89.9674 31.4137C89.8468 31.6533 89.7866 31.833 89.7866 32.1325C89.7866 32.432 89.8468 32.6716 89.9674 32.8513C90.0879 33.031 90.2085 33.2107 90.4495 33.3305C90.6303 33.4503 90.8714 33.5102 91.1125 33.5102Z" fill="#1B1A37"/>
</svg>
