<svg width="10" height="14" viewBox="0 0 10 14" fill="none" xmlns="http://www.w3.org/2000/svg">
<path d="M4.5201 12.7542C4.8271 13.0834 5.33713 13.0834 5.64412 12.7542C6.86801 11.4421 9.66545 8.15478 9.66545 5.52173C9.66545 4.27853 9.18256 3.08624 8.32302 2.20717C7.46348 1.32809 6.29769 0.834229 5.08211 0.834229C3.86654 0.834229 2.70075 1.32809 1.84121 2.20717C0.981665 3.08624 0.498779 4.27853 0.498779 5.52173C0.498779 8.15478 3.29622 11.4421 4.5201 12.7542ZM5.08211 7.86548C4.47432 7.86548 3.89143 7.61855 3.46166 7.17901C3.03189 6.73947 2.79045 6.14333 2.79045 5.52173C2.79045 4.90013 3.03189 4.30399 3.46166 3.86445C3.89143 3.42491 4.47432 3.17798 5.08211 3.17798C5.6899 3.17798 6.2728 3.42491 6.70257 3.86445C7.13234 4.30399 7.37378 4.90013 7.37378 5.52173C7.37378 6.14333 7.13234 6.73947 6.70257 7.17901C6.2728 7.61855 5.6899 7.86548 5.08211 7.86548Z" fill="#4B8E4B"/>
</svg>
