<svg width="17" height="16" viewBox="0 0 17 16" fill="none" xmlns="http://www.w3.org/2000/svg">
<path d="M6 12.6411V3.48479C6 3.10615 6 2.91683 6.073 2.76328C6.13735 2.62793 6.24097 2.51251 6.37189 2.43037C6.5204 2.33718 6.71831 2.30605 7.11413 2.24381L14.4475 1.09055C14.9816 1.00655 15.2487 0.964549 15.4568 1.0375C15.6395 1.10151 15.7926 1.22389 15.8895 1.38337C16 1.5651 16 1.82058 16 2.33153V11.0684M6 12.6411C6 13.9439 4.88071 15 3.5 15C2.11929 15 1 13.9439 1 12.6411C1 11.3383 2.11929 10.2821 3.5 10.2821C4.88071 10.2821 6 11.3383 6 12.6411ZM16 11.0684C16 12.3712 14.8807 13.4274 13.5 13.4274C12.1193 13.4274 11 12.3712 11 11.0684C11 9.76564 12.1193 8.70951 13.5 8.70951C14.8807 8.70951 16 9.76564 16 11.0684Z" stroke="#1B1A37" stroke-width="1.5" stroke-linecap="round" stroke-linejoin="round"/>
</svg>
