<svg width="16" height="16" viewBox="0 0 16 16" fill="none" xmlns="http://www.w3.org/2000/svg">
<path d="M8.01202 16C7.58694 15.9979 7.17974 15.8289 6.87841 15.5296C6.57708 15.2302 6.40581 14.8244 6.4016 14.4H9.60641C9.60836 14.6138 9.56778 14.8259 9.48703 15.024C9.38337 15.2614 9.2247 15.4707 9.02411 15.6348C8.82353 15.799 8.58675 15.9132 8.3333 15.968H8.29644C8.20282 15.9874 8.10761 15.9981 8.01202 16ZM14.4216 13.6H1.6024V12L3.20481 11.2V6.8C3.1626 5.67129 3.41788 4.5513 3.94512 3.552C4.20458 3.09381 4.55838 2.69577 4.9832 2.38412C5.40801 2.07247 5.89417 1.8543 6.40961 1.744V0H9.61442V1.744C11.6807 2.2352 12.8192 4.0304 12.8192 6.8V11.2L14.4216 12V13.6ZM16 6.4H14.3976C14.3607 5.3782 14.0981 4.37716 13.6286 3.46852C13.1591 2.55988 12.4942 1.76611 11.6815 1.144L12.8192 0C13.7775 0.744383 14.5519 1.69849 15.0826 2.7888C15.6314 3.91762 15.9436 5.14646 16 6.4ZM1.6024 6.4H0C0.0560841 5.1464 0.368553 3.9176 0.917376 2.7888C1.44814 1.69849 2.22249 0.744383 3.18077 0L4.31848 1.144C3.50575 1.76603 2.8408 2.55979 2.37125 3.46844C1.90169 4.3771 1.63915 5.37817 1.6024 6.4Z" fill="#333333"/>
</svg>
