<svg width="18" height="18" viewBox="0 0 18 18" fill="none" xmlns="http://www.w3.org/2000/svg">
<path d="M16.8007 5.99285C16.7659 5.89547 16.7121 5.80598 16.6424 5.72957C16.5727 5.65317 16.4886 5.59136 16.3948 5.54776C16.301 5.50415 16.1995 5.47961 16.0962 5.47556C15.9929 5.47151 15.8898 5.48803 15.7929 5.52417C15.696 5.5603 15.6072 5.61532 15.5318 5.68604C15.4563 5.75676 15.3957 5.84177 15.3534 5.93612C15.311 6.03048 15.2879 6.1323 15.2852 6.23568C15.2826 6.33906 15.3005 6.44193 15.338 6.53832C15.8071 7.80127 15.9043 9.17221 15.6181 10.4887C15.3319 11.8052 14.6744 13.0121 13.7234 13.9664C10.9836 16.7054 6.52628 16.7054 3.78727 13.9664C1.04826 11.2274 1.04826 6.76987 3.78727 4.03064C6.20274 1.61505 9.97704 1.33802 12.7208 3.20974L12.024 3.44199C11.9267 3.47443 11.8368 3.5257 11.7594 3.59288C11.6819 3.66007 11.6185 3.74185 11.5727 3.83355C11.5268 3.92526 11.4995 4.0251 11.4923 4.12736C11.485 4.22963 11.498 4.33232 11.5304 4.42957C11.5628 4.52683 11.6141 4.61674 11.6813 4.69419C11.7485 4.77163 11.8303 4.83507 11.922 4.88091C12.0137 4.92674 12.1135 4.95407 12.2158 4.96132C12.318 4.96857 12.4207 4.95561 12.518 4.92317L14.5415 4.24854C14.7195 4.18914 14.8701 4.06764 14.9659 3.90627C15.0616 3.7449 15.0961 3.55444 15.0629 3.36976L14.6464 1.05418C14.6089 0.851153 14.4926 0.671227 14.3228 0.553767C14.153 0.436307 13.9436 0.390875 13.7404 0.427411C13.5372 0.463948 13.3568 0.579478 13.2386 0.748725C13.1203 0.917973 13.0739 1.12716 13.1096 1.33052L13.1657 1.6425C9.8673 -0.329196 5.51288 0.0967284 2.68327 2.92682C-0.664443 6.27471 -0.664443 11.7223 2.68327 15.0702C4.06988 16.4565 5.88913 17.3266 7.83868 17.5359C9.78824 17.7451 11.7507 17.281 13.3999 16.2205C15.0492 15.1601 16.2859 13.5672 16.9046 11.7066C17.5232 9.84601 17.4866 7.82974 16.8007 5.99285Z" fill="#8D8D8D"/>
<path d="M6.41419 12.9019C6.62122 12.9019 6.81977 12.8197 6.96616 12.6733C7.11255 12.5269 7.19479 12.3283 7.19479 12.1213V6.65696C7.19476 6.51882 7.15809 6.38316 7.0885 6.26383C7.01891 6.1445 6.9189 6.04577 6.79869 5.97772C6.67848 5.90966 6.54236 5.87472 6.40423 5.87647C6.2661 5.87821 6.13091 5.91657 6.01245 5.98763L4.06092 7.15856C3.88405 7.26542 3.75676 7.43805 3.70697 7.6386C3.65717 7.83916 3.68893 8.05128 3.79527 8.22846C3.90162 8.40564 4.07387 8.53343 4.27428 8.58381C4.47469 8.63419 4.6869 8.60305 4.86439 8.49722L5.63358 8.03562V12.1213C5.63358 12.3283 5.71582 12.5269 5.86221 12.6733C6.00861 12.8197 6.20715 12.9019 6.41419 12.9019Z" fill="#8D8D8D"/>
<path d="M10.707 5.8764C9.17513 5.8764 7.97485 7.41932 7.97485 9.38918C7.97485 11.359 9.17505 12.902 10.707 12.902C12.2389 12.902 13.4392 11.359 13.4392 9.38918C13.4392 7.41935 12.239 5.8764 10.707 5.8764ZM10.707 11.3407C10.1532 11.3407 9.53606 10.5394 9.53606 9.38918C9.53606 8.239 10.1532 7.43761 10.707 7.43761C11.2608 7.43761 11.8779 8.23897 11.8779 9.38918C11.8779 10.5394 11.2608 11.3407 10.707 11.3407Z" fill="#8D8D8D"/>
</svg>
