<svg width="16" height="16" viewBox="0 0 16 16" fill="none" xmlns="http://www.w3.org/2000/svg">
<path d="M5.60526 7.27778L7.65789 9.44444L14.5 2.22222M10.3947 1.5H4.78421C3.63463 1.5 3.05984 1.5 2.62076 1.73615C2.23453 1.94388 1.92052 2.27534 1.72372 2.68302C1.5 3.1465 1.5 3.75322 1.5 4.96667V11.0333C1.5 12.2468 1.5 12.8535 1.72372 13.317C1.92052 13.7247 2.23453 14.0561 2.62076 14.2638C3.05984 14.5 3.63463 14.5 4.78421 14.5H10.5316C11.6812 14.5 12.256 14.5 12.695 14.2638C13.0813 14.0561 13.3953 13.7247 13.5921 13.317C13.8158 12.8535 13.8158 12.2468 13.8158 11.0333V8" stroke="#1B1A37" stroke-width="1.5" stroke-linecap="round" stroke-linejoin="round"/>
</svg>
