<svg width="24" height="16" viewBox="0 0 24 16" fill="none" xmlns="http://www.w3.org/2000/svg">
<path d="M11.7947 0.966064C6.76303 0.966064 2.26998 3.72402 0.0703668 8.16947C-0.0234556 8.35697 -0.0234556 8.57856 0.0703668 8.76606C2.26998 13.2081 6.76303 15.9661 11.7947 15.9661C16.8264 15.9661 21.3194 13.2081 23.519 8.76266C23.6128 8.57516 23.6128 8.35356 23.519 8.16606C21.3194 3.72402 16.8264 0.966064 11.7947 0.966064ZM11.7947 14.6024C7.41284 14.6024 3.48967 12.2604 1.47423 8.46606C3.48967 4.67175 7.41631 2.3297 11.7947 2.3297C16.1731 2.3297 20.0997 4.67175 22.1152 8.46606C20.0997 12.2604 16.1765 14.6024 11.7947 14.6024Z" fill="#A5A5A5"/>
<path d="M11.7949 4.20496C9.40065 4.20496 7.45123 6.11746 7.45123 8.46632C7.45123 10.8152 9.40065 12.7277 11.7949 12.7277C14.1891 12.7277 16.1385 10.8152 16.1385 8.46632C16.1385 6.11746 14.1891 4.20496 11.7949 4.20496ZM11.7949 11.364C10.1651 11.364 8.84119 10.0652 8.84119 8.46632C8.84119 6.86746 10.1651 5.56859 11.7949 5.56859C13.4246 5.56859 14.7485 6.86746 14.7485 8.46632C14.7485 10.0652 13.4246 11.364 11.7949 11.364Z" fill="#A5A5A5"/>
</svg>
