<svg width="24" height="16" viewBox="0 0 24 16" fill="none" xmlns="http://www.w3.org/2000/svg">
<path d="M11.7947 0.966064C6.76303 0.966064 2.26998 3.72402 0.0703668 8.16947C-0.0234556 8.35697 -0.0234556 8.57856 0.0703668 8.76606C2.26998 13.2081 6.76303 15.9661 11.7947 15.9661C16.8264 15.9661 21.3194 13.2081 23.519 8.76266C23.6128 8.57516 23.6128 8.35356 23.519 8.16606C21.3194 3.72402 16.8264 0.966064 11.7947 0.966064ZM11.7947 14.6024C7.41284 14.6024 3.48967 12.2604 1.47423 8.46606C3.48967 4.67175 7.41631 2.3297 11.7947 2.3297C16.1731 2.3297 20.0997 4.67175 22.1152 8.46606C20.0997 12.2604 16.1765 14.6024 11.7947 14.6024Z" fill="#990000"/>
<path d="M11.7948 4.20508C9.40059 4.20508 7.45117 6.11758 7.45117 8.46644C7.45117 10.8153 9.40059 12.7278 11.7948 12.7278C14.189 12.7278 16.1384 10.8153 16.1384 8.46644C16.1384 6.11758 14.189 4.20508 11.7948 4.20508ZM11.7948 11.3642C10.1651 11.3642 8.84113 10.0653 8.84113 8.46644C8.84113 6.86758 10.1651 5.56871 11.7948 5.56871C13.4245 5.56871 14.7485 6.86758 14.7485 8.46644C14.7485 10.0653 13.4245 11.3642 11.7948 11.3642Z" fill="#990000"/>
</svg>
