<svg width="95" height="70" viewBox="0 0 95 70" fill="none" xmlns="http://www.w3.org/2000/svg">
<path d="M75.233 52.9726C74.8616 55.3109 74.4901 57.5261 74.1186 59.7413C73.6233 62.0796 73.128 64.541 72.5089 66.8793C71.6422 69.8329 68.918 70.8174 66.3178 68.9714C64.5842 67.6177 62.8507 66.1409 61.1172 64.7871C57.4025 61.7104 53.6878 58.5107 49.9731 55.434C49.6016 55.0648 48.9825 54.9417 48.4872 54.9417C46.0108 54.9417 43.4105 55.1878 40.934 55.1878C37.5908 55.1878 34.2476 55.0648 30.7805 55.0648C30.1614 55.0648 29.6661 54.9417 29.047 54.9417C22.8558 54.9417 16.7885 54.5725 10.5973 53.711C6.1397 52.9726 2.42501 50.019 2.17736 45.2193C1.92972 40.4197 1.55825 35.497 1.18678 30.6973C0.815308 26.513 0.567662 22.2057 0.196193 18.0214C0.0723695 16.5446 -0.175277 14.9447 0.196193 13.4679C1.18678 10.145 3.16795 8.05289 6.38735 7.06835C11.8356 5.46846 17.2838 4.11472 22.8558 3.13018C26.4467 2.51484 29.9138 2.02257 33.5046 1.65336C44.5249 0.422687 56.0404 -0.192652 67.1845 0.0534838C72.7566 0.176552 78.3286 0.79189 83.9006 1.40723C88.7297 1.8995 91.8253 5.46846 92.1968 9.5297C92.4444 11.868 92.5683 14.2063 92.8159 16.4215C93.0636 19.3751 93.435 22.3287 93.6827 25.2824C93.9303 27.9899 94.178 30.8204 94.4256 33.651C94.5494 35.3739 94.6732 37.2199 94.9209 38.9429C95.4162 42.8811 93.5589 46.6962 90.0918 48.4191C87.6153 49.6498 85.015 50.3882 82.4148 51.2497C80.5574 51.865 78.5762 52.2342 76.5951 52.7265C76.3474 52.6034 75.8521 52.7265 75.233 52.9726ZM66.5654 59.2491C66.813 58.6337 66.813 58.3876 66.9369 58.1415C67.9275 54.6956 69.0419 51.1266 70.0324 47.6807C70.2801 46.5731 70.8992 45.9577 72.0136 45.8347C73.4995 45.5885 75.1092 45.4655 76.5951 45.0963C79.8145 44.3579 83.0339 43.6195 86.2533 42.6349C88.1106 42.1427 88.6059 41.2812 88.6059 39.5582C88.6059 38.8198 88.6059 37.9583 88.6059 37.2199C88.2345 32.2972 87.9868 27.3745 87.6153 22.4518C87.4915 20.1135 87.3677 17.7752 87.2439 15.437C87.12 13.9601 86.9962 12.3603 86.8724 10.8834C86.6247 8.17595 85.5103 7.19141 83.5292 7.06835C81.7956 6.94528 80.186 6.57607 78.4524 6.45301C74.1186 6.0838 69.661 5.59153 65.3272 5.46846C56.9072 5.3454 48.4872 5.22233 40.0672 6.0838C36.4764 6.45301 32.7617 6.69914 29.1708 7.31448C25.4561 7.80675 21.8652 8.54516 18.2744 9.28356C14.5597 9.8989 11.0926 10.8834 7.62558 11.868C5.64441 12.3603 4.90147 13.5909 5.0253 15.56C5.14912 17.6522 5.27294 19.7443 5.52059 21.8365C5.76823 25.1593 6.1397 28.3591 6.38735 31.6819C6.635 34.7586 6.88264 37.9583 7.13029 41.035C7.25411 42.5119 7.37794 43.9887 7.74941 45.4655C8.12088 47.0654 9.23528 48.0499 10.845 48.173C11.9594 48.296 12.95 48.4191 14.0644 48.4191C17.7791 48.5422 21.37 48.7883 25.0846 48.7883C30.0376 48.6652 34.8667 48.4191 39.8196 48.173C43.039 48.0499 46.2584 47.8038 49.354 47.3115C51.0875 47.0654 52.4496 47.4346 53.6878 48.4191C57.5263 51.6189 61.4887 54.9417 65.3272 58.2645C65.5748 58.5107 65.9463 58.7568 66.5654 59.2491Z" fill="#1B1A37"/>
</svg>
