<svg width="18" height="18" viewBox="0 0 18 18" fill="none" xmlns="http://www.w3.org/2000/svg">
<path d="M14.6612 2.92734C11.8334 0.0996636 7.4832 -0.327849 4.17579 1.64755L4.23277 1.33071C4.26839 1.12731 4.222 0.918077 4.10375 0.748795C3.98549 0.579512 3.805 0.463958 3.60177 0.427414C3.39853 0.39087 3.18909 0.436311 3.01927 0.553796C2.84945 0.67128 2.73308 0.851243 2.69561 1.05431L2.27893 3.37052C2.24577 3.55524 2.28022 3.74573 2.37599 3.90714C2.47176 4.06854 2.62244 4.19007 2.80047 4.24948L4.8244 4.92425C4.92167 4.9567 5.02438 4.96966 5.12667 4.96241C5.22896 4.95515 5.32881 4.92783 5.42054 4.88198C5.51226 4.83614 5.59406 4.77267 5.66126 4.69522C5.72846 4.61776 5.77974 4.52783 5.81218 4.43055C5.84463 4.33328 5.85759 4.23056 5.85034 4.12828C5.84308 4.02599 5.81576 3.92613 5.76991 3.83441C5.72407 3.74268 5.6606 3.66089 5.58315 3.59369C5.50569 3.52649 5.41576 3.47521 5.31848 3.44276L4.61871 3.20948C7.35229 1.33788 11.1362 1.61087 13.5571 4.03139C16.2966 6.77119 16.2966 11.2294 13.5571 13.9692C10.8167 16.7091 6.35925 16.7091 3.6189 13.9692C2.66768 13.0147 2.01 11.8076 1.72378 10.4908C1.43756 9.17403 1.53479 7.8028 2.00397 6.53959C2.04018 6.44343 2.05705 6.34107 2.05362 6.23838C2.0502 6.13569 2.02653 6.03468 1.98399 5.94115C1.94145 5.84762 1.88087 5.76341 1.80572 5.69334C1.73056 5.62327 1.64232 5.56872 1.54605 5.53283C1.44977 5.49693 1.34736 5.48039 1.24468 5.48415C1.142 5.48791 1.04107 5.5119 0.947679 5.55474C0.854288 5.59758 0.770272 5.65844 0.700447 5.73382C0.630622 5.8092 0.576361 5.89762 0.540775 5.99401C-0.143799 7.83109 -0.179454 9.84705 0.439731 11.7072C1.05892 13.5673 2.29569 15.1597 3.94472 16.22C5.59374 17.2803 7.55581 17.7447 9.50517 17.5361C11.4545 17.3275 13.2739 16.4585 14.6612 15.0732C18.0096 11.7246 18.0096 6.27593 14.6612 2.92734Z" fill="#8D8D8D"/>
<path d="M6.24544 12.9043C6.45252 12.9043 6.65111 12.822 6.79753 12.6756C6.94395 12.5291 7.02621 12.3306 7.02621 12.1235V6.65804C7.02618 6.51987 6.98949 6.38419 6.91989 6.26483C6.85029 6.14547 6.75026 6.04672 6.63002 5.97865C6.50979 5.91058 6.37364 5.87564 6.23548 5.87738C6.09733 5.87912 5.9621 5.91749 5.84362 5.98857L3.89169 7.15974C3.71478 7.26662 3.58747 7.43929 3.53766 7.63988C3.48785 7.84048 3.51961 8.05264 3.62598 8.22986C3.73235 8.40708 3.90464 8.53489 4.1051 8.58528C4.30555 8.63567 4.5178 8.60453 4.69533 8.49868L5.46467 8.03698V12.1235C5.46467 12.3306 5.54693 12.5291 5.69335 12.6756C5.83977 12.822 6.03837 12.9043 6.24544 12.9043Z" fill="#8D8D8D"/>
<path d="M10.539 12.9043C12.0712 12.9043 13.2717 11.3611 13.2717 9.39082C13.2717 7.42059 12.0713 5.87732 10.539 5.87732C9.00669 5.87732 7.80627 7.42055 7.80627 9.39082C7.80627 11.3611 9.00679 12.9043 10.539 12.9043ZM10.539 7.43885C11.0929 7.43885 11.7101 8.24037 11.7101 9.39082C11.7101 10.5413 11.0929 11.3428 10.539 11.3428C9.98501 11.3428 9.36781 10.5412 9.36781 9.39082C9.36781 8.24041 9.98512 7.43885 10.539 7.43885Z" fill="#8D8D8D"/>
</svg>
