<svg width="18" height="16" viewBox="0 0 18 16" fill="none" xmlns="http://www.w3.org/2000/svg">
<path d="M6.81166 10.5278H5.67345C4.61448 10.5278 4.085 10.5278 3.65415 10.6522C2.68409 10.9322 1.92496 11.6548 1.6307 12.5781C1.5 12.9881 1.5 13.4921 1.5 14.5M10.9851 4.75C10.9851 6.54492 9.45632 8 7.57047 8C5.68462 8 4.15583 6.54492 4.15583 4.75C4.15583 2.95507 5.68462 1.5 7.57047 1.5C9.45632 1.5 10.9851 2.95507 10.9851 4.75ZM8.32928 14.5L10.6826 13.86C10.7953 13.8294 10.8517 13.8141 10.9042 13.7911C10.9509 13.7707 10.9952 13.7459 11.0366 13.7169C11.0833 13.6844 11.1247 13.6449 11.2076 13.566L16.1071 8.90281C16.631 8.4042 16.631 7.5958 16.1071 7.0972C15.5832 6.59862 14.7339 6.59863 14.2101 7.09722L9.31055 11.7605C9.22767 11.8394 9.18623 11.8788 9.15201 11.9232C9.12162 11.9626 9.09551 12.0048 9.07409 12.0492C9.04996 12.0992 9.03386 12.1529 9.00166 12.2601L8.32928 14.5Z" stroke="black" stroke-width="1.5" stroke-linecap="round" stroke-linejoin="round"/>
</svg>
