<svg width="11" height="11" viewBox="0 0 11 11" fill="none" xmlns="http://www.w3.org/2000/svg">
<path d="M3.67288 7.32711L1 10M5.2405 3.08663L4.50297 3.82415C4.44281 3.88431 4.41273 3.9144 4.37846 3.9383C4.34804 3.95951 4.31523 3.97707 4.2807 3.99062C4.2418 4.00587 4.20009 4.01422 4.11666 4.0309L2.38519 4.3772C1.93523 4.46719 1.71024 4.51219 1.60499 4.63081C1.51329 4.73415 1.47142 4.87245 1.49039 5.0093C1.51217 5.16639 1.67441 5.32862 1.99888 5.6531L5.34691 9.00114C5.67139 9.32562 5.83363 9.48785 5.99071 9.50963C6.12756 9.5286 6.26586 9.48673 6.3692 9.39503C6.48782 9.28978 6.53282 9.06479 6.62281 8.61483L6.96911 6.88335C6.98579 6.79992 6.99413 6.75821 7.00939 6.71931C7.02293 6.68479 7.04049 6.65197 7.06171 6.62155C7.08561 6.58728 7.11569 6.5572 7.17585 6.49704L7.91338 5.75952C7.95184 5.72105 7.97107 5.70182 7.99221 5.68503C8.01099 5.67011 8.03088 5.65664 8.05171 5.64475C8.07515 5.63136 8.10015 5.62064 8.15015 5.59921L9.32874 5.0941C9.67258 4.94674 9.8445 4.87306 9.92259 4.754C9.99089 4.64988 10.0153 4.52301 9.99058 4.40098C9.96229 4.26142 9.83003 4.12916 9.56551 3.86464L7.13536 1.43449C6.87084 1.16997 6.73858 1.03771 6.59903 1.00942C6.477 0.984682 6.35013 1.00911 6.24601 1.07741C6.12695 1.1555 6.05327 1.32742 5.90591 1.67126L5.4008 2.84986C5.37937 2.89986 5.36866 2.92485 5.35526 2.9483C5.34337 2.96912 5.3299 2.98901 5.31499 3.00779C5.29819 3.02893 5.27896 3.04816 5.2405 3.08663Z" stroke="#808080" stroke-linecap="round" stroke-linejoin="round"/>
</svg>
