<svg width="14" height="15" viewBox="0 0 14 15" fill="none" xmlns="http://www.w3.org/2000/svg">
<path d="M4.36083 10.1392L0.5 14M6.62516 4.01402L5.55985 5.07933C5.47295 5.16623 5.4295 5.20968 5.38 5.24421C5.33606 5.27485 5.28866 5.30022 5.23879 5.31978C5.18261 5.34182 5.12235 5.35387 5.00185 5.37797L2.50083 5.87817C1.85088 6.00816 1.52591 6.07316 1.37387 6.2445C1.24142 6.39378 1.18094 6.59354 1.20834 6.79121C1.2398 7.01811 1.47414 7.25246 1.94283 7.72114L6.77887 12.5572C7.24756 13.0259 7.4819 13.2602 7.7088 13.2917C7.90648 13.3191 8.10624 13.2586 8.25551 13.1262C8.42685 12.9741 8.49185 12.6491 8.62184 11.9992L9.12204 9.49818C9.14614 9.37767 9.15819 9.31741 9.18023 9.26123C9.19979 9.21136 9.22516 9.16396 9.2558 9.12002C9.29033 9.07052 9.33378 9.02707 9.42068 8.94017L10.486 7.87486C10.5415 7.8193 10.5693 7.79152 10.5999 7.76726C10.627 7.74571 10.6557 7.72626 10.6858 7.70908C10.7197 7.68974 10.7558 7.67426 10.828 7.64331L12.5304 6.9137C13.0271 6.70085 13.2754 6.59442 13.3882 6.42244C13.4868 6.27205 13.5221 6.08879 13.4864 5.91252C13.4455 5.71095 13.2545 5.5199 12.8724 5.13782L9.36219 1.6276C8.98011 1.24551 8.78907 1.05447 8.58749 1.01361C8.41122 0.977875 8.22797 1.01317 8.07757 1.11181C7.90559 1.22461 7.79917 1.47294 7.58631 1.9696L6.85671 3.67202C6.82576 3.74424 6.81028 3.78035 6.79094 3.81421C6.77375 3.84429 6.7543 3.87302 6.73276 3.90014C6.7085 3.93068 6.68072 3.95846 6.62516 4.01402Z" stroke="#FEB325" stroke-linecap="round" stroke-linejoin="round"/>
</svg>
