<svg width="17" height="21" viewBox="0 0 17 21" fill="none" xmlns="http://www.w3.org/2000/svg">
<path d="M5.61591 10.7501C4.97086 9.79516 4.58713 8.64292 4.50796 8.54503C5.45271 7.87128 7.30043 7.02462 7.40389 5.80977C7.53553 4.24016 4.93589 0.958837 4.43753 0.929025C3.07359 0.943931 0.57741 3.30505 0.281598 4.01856C-0.268251 5.49376 0.00424516 6.86661 0.949481 8.85409C2.15313 11.8105 6.62381 17.4186 9.18119 19.179C10.8735 20.5077 12.1097 21.0294 13.5858 20.7144C14.2722 20.5812 16.7508 18.5008 16.9991 17.0942C17.0598 16.5725 14.1784 13.1137 12.6882 12.9766C11.5312 12.8673 10.4218 14.6391 9.62661 15.5052C9.54743 15.4018 8.86935 14.8607 8.14172 14.0041C7.19454 12.9861 6.3144 11.7901 5.61591 10.7501Z" fill="#F2F7F2"/>
</svg>
