<svg width="20" height="19" viewBox="0 0 20 19" fill="none" xmlns="http://www.w3.org/2000/svg">
<path d="M10.9 4.77778H3.88C2.87191 4.77778 2.36786 4.77778 1.98282 4.98365C1.64413 5.16475 1.36876 5.45371 1.19619 5.80913C1 6.21318 1 6.74212 1 7.8V11.2C1 12.2579 1 12.7868 1.19619 13.1909C1.36876 13.5463 1.64413 13.8352 1.98282 14.0163C2.36786 14.2222 2.87191 14.2222 3.88 14.2222H10.9M14.5 4.77778H16.12C17.1281 4.77778 17.6321 4.77778 18.0172 4.98365C18.3559 5.16475 18.6312 5.45371 18.8038 5.80913C19 6.21318 19 6.74212 19 7.8V11.2C19 12.2579 19 12.7868 18.8038 13.1909C18.6312 13.5463 18.3559 13.8352 18.0172 14.0163C17.6321 14.2222 17.1281 14.2222 16.12 14.2222H14.5M14.5 18L14.5 1M16.75 1.00001L12.25 1M16.75 18L12.25 18" stroke="#FEB325" stroke-linecap="round" stroke-linejoin="round"/>
</svg>
