<svg width="21" height="21" viewBox="0 0 21 21" fill="none" xmlns="http://www.w3.org/2000/svg">
<path d="M16.8333 15.4852C16.8333 15.8355 16.8333 16.0106 16.8168 16.1629C16.6795 17.4269 15.7117 18.471 14.4034 18.7666C14.2458 18.8022 14.062 18.8254 13.6944 18.8717L6.7363 19.748C4.75561 19.9975 3.76527 20.1222 2.99664 19.8335C2.3218 19.58 1.75969 19.1152 1.40453 18.5168C1 17.8353 1 16.8916 1 15.0042V5.99583C1 4.10838 1 3.16466 1.40453 2.48315C1.75969 1.88481 2.3218 1.41996 2.99664 1.1665C3.76527 0.877819 4.75561 1.00255 6.7363 1.252L13.6944 2.12832C14.062 2.17462 14.2458 2.19776 14.4034 2.23337C15.7117 2.52898 16.6795 3.57311 16.8168 4.83713C16.8333 4.98938 16.8333 5.16451 16.8333 5.51478M10.5 6.51182L6.27778 10.5M6.27778 10.5L10.5 14.4882M6.27778 10.5H20" stroke="#1B1A37" stroke-linecap="round" stroke-linejoin="round"/>
</svg>
