<svg width="49" height="10" viewBox="0 0 49 10" fill="none" xmlns="http://www.w3.org/2000/svg">
<path d="M0 7.9722V1.00549H1.17981V4.10947L1.11041 5.42004L1.17981 6.73061V7.90322H0V7.9722ZM2.77603 8.04118C2.35962 8.04118 1.94322 7.9722 1.66562 7.76527C1.31861 7.55833 1.04101 7.28243 0.902206 6.93754C0.694004 6.59265 0.624607 6.10981 0.624607 5.48902C0.624607 4.86822 0.694004 4.38538 0.902206 4.04049C1.11041 3.69561 1.38801 3.35072 1.73502 3.21277C2.08202 3.00583 2.42902 2.93686 2.84543 2.93686C3.33123 2.93686 3.74764 3.07481 4.16404 3.28174C4.51104 3.48867 4.85805 3.76459 5.06625 4.17845C5.27445 4.59231 5.41325 5.00618 5.41325 5.558C5.41325 6.10981 5.27445 6.52368 5.06625 6.93754C4.85805 7.3514 4.51104 7.62731 4.16404 7.83424C3.67824 7.90322 3.26183 8.04118 2.77603 8.04118ZM2.63722 7.00652C2.91483 7.00652 3.19243 6.93754 3.40064 6.79959C3.60884 6.66163 3.81704 6.52368 3.95584 6.24777C4.09464 6.04084 4.16404 5.76493 4.16404 5.42004C4.16404 5.07515 4.09464 4.79924 3.95584 4.59231C3.81704 4.38538 3.67824 4.17845 3.40064 4.04049C3.19243 3.90254 2.91483 3.83356 2.63722 3.83356C2.35962 3.83356 2.08202 3.90254 1.87382 4.04049C1.66561 4.17845 1.45742 4.3164 1.31861 4.59231C1.17981 4.79924 1.11041 5.07515 1.11041 5.42004C1.11041 5.76493 1.17981 6.04084 1.31861 6.24777C1.45742 6.4547 1.59621 6.66163 1.87382 6.79959C2.15142 6.93754 2.35962 7.00652 2.63722 7.00652Z" fill="#1B1A37"/>
<path d="M6.73189 9.8345C6.45428 9.8345 6.24608 9.76553 5.96848 9.69655C5.69088 9.62757 5.55207 9.48962 5.34387 9.35166L5.82968 8.45496C5.96848 8.59291 6.10728 8.66189 6.24608 8.73087C6.38488 8.79984 6.52368 8.79984 6.73189 8.79984C6.94009 8.79984 7.14829 8.73087 7.21769 8.66189C7.3565 8.52394 7.4953 8.38598 7.5647 8.11007L7.8423 7.4203L7.9117 7.28235L9.78552 2.8678H10.8959L8.67511 8.38598C8.53631 8.73087 8.3281 9.07575 8.1199 9.28268C7.9117 9.48962 7.70349 9.62757 7.49529 9.76553C7.28709 9.8345 7.00949 9.8345 6.73189 9.8345ZM7.7729 8.17905L5.48268 3.00575H6.73189L8.60571 7.35132L7.7729 8.17905Z" fill="#1B1A37"/>
<path d="M14.5048 7.97228V1.41943H15.754V6.93762H19.224V7.97228H14.5048Z" fill="#1B1A37"/>
<path d="M20.612 2.10916C20.4038 2.10916 20.1956 2.04018 20.0568 1.90223C19.918 1.76427 19.8486 1.62632 19.8486 1.41939C19.8486 1.21246 19.918 1.0745 20.0568 0.936546C20.1956 0.798591 20.4038 0.729614 20.612 0.729614C20.8202 0.729614 21.0284 0.798591 21.1672 0.936546C21.306 1.0745 21.3754 1.21246 21.3754 1.41939C21.3754 1.62632 21.306 1.83325 21.1672 1.9712C21.0284 2.04018 20.8896 2.10916 20.612 2.10916ZM20.0568 7.97223V2.93689H21.2366V7.97223H20.0568Z" fill="#1B1A37"/>
<path d="M25.6088 2.8678C26.0252 2.8678 26.3722 2.93677 26.7192 3.07473C27.0662 3.21268 27.2744 3.48859 27.4826 3.7645C27.6908 4.10939 27.7602 4.52325 27.7602 5.00609V7.90314H26.5804V5.21303C26.5804 4.79916 26.4416 4.45428 26.2334 4.24734C26.0252 4.04041 25.7476 3.90246 25.3312 3.90246C25.0536 3.90246 24.776 3.97143 24.5678 4.04041C24.3596 4.17837 24.2208 4.31632 24.082 4.52325C23.9432 4.73019 23.8738 5.00609 23.8738 5.35098V7.90314H22.694V2.8678H23.8044V4.24734L23.5962 3.83348C23.8044 3.48859 24.0126 3.28166 24.3596 3.07473C24.776 3.00575 25.1924 2.8678 25.6088 2.8678Z" fill="#1B1A37"/>
<path d="M30.4671 7.97223L28.3157 2.93689H29.5649L31.4387 7.35144H30.8141L32.7573 2.93689H33.8677L31.7163 7.97223H30.4671Z" fill="#1B1A37"/>
<path d="M36.8518 8.04121C36.2966 8.04121 35.8108 7.90325 35.3944 7.69632C34.978 7.48939 34.631 7.14451 34.4228 6.79962C34.2146 6.38576 34.0758 5.97189 34.0758 5.48905C34.0758 5.00621 34.2146 4.52337 34.4228 4.17848C34.631 3.76462 34.978 3.48871 35.325 3.28178C35.7414 3.07484 36.1578 2.93689 36.6436 2.93689C37.1294 2.93689 37.5458 3.07484 37.9622 3.28178C38.3787 3.48871 38.6562 3.76462 38.8644 4.17848C39.0727 4.59235 39.2115 5.00621 39.2115 5.55803C39.2115 5.62701 39.2115 5.69598 39.2115 5.69598C39.2115 5.76496 39.2115 5.83394 39.2115 5.90291H34.978V5.14416H38.5869L38.101 5.42007C38.101 5.14416 38.0316 4.86825 37.8928 4.66132C37.754 4.45439 37.6152 4.24746 37.407 4.17848C37.1988 4.04053 36.9212 3.97155 36.6436 3.97155C36.366 3.97155 36.0884 4.04053 35.8802 4.17848C35.672 4.31644 35.4638 4.45439 35.3944 4.7303C35.2556 4.93723 35.1862 5.21314 35.1862 5.48905V5.69598C35.1862 5.97189 35.2556 6.2478 35.3944 6.52371C35.5332 6.73064 35.7414 6.93757 35.9496 7.07553C36.2272 7.21348 36.5048 7.28246 36.8518 7.28246C37.1294 7.28246 37.407 7.21348 37.6152 7.14451C37.8234 7.07553 38.0316 6.93757 38.2398 6.73064L38.8644 7.42041C38.6562 7.69632 38.3786 7.90325 38.0316 8.04121C37.6846 7.97223 37.2682 8.04121 36.8518 8.04121Z" fill="#1B1A37"/>
<path d="M40.3219 7.9722V1.00549H41.5017V7.9722H40.3219Z" fill="#1B1A37"/>
<path d="M45.3186 8.04121C44.8328 8.04121 44.347 7.90325 43.9305 7.69632C43.5141 7.48939 43.2365 7.14451 42.9589 6.79962C42.7507 6.38576 42.6119 5.97189 42.6119 5.48905C42.6119 5.00621 42.7507 4.52337 42.9589 4.17848C43.1671 3.76462 43.5141 3.48871 43.9305 3.28178C44.347 3.07484 44.7634 2.93689 45.3186 2.93689C45.8738 2.93689 46.2902 3.07484 46.7066 3.28178C47.123 3.48871 47.4006 3.8336 47.6782 4.17848C47.8864 4.59235 48.0252 5.00621 48.0252 5.48905C48.0252 5.97189 47.8864 6.45473 47.6782 6.79962C47.47 7.21348 47.123 7.48939 46.7066 7.69632C46.2902 7.90325 45.8738 8.04121 45.3186 8.04121ZM45.3186 7.00655C45.5962 7.00655 45.8738 6.93757 46.082 6.79962C46.2902 6.66166 46.4984 6.52371 46.6372 6.2478C46.776 6.04087 46.8454 5.76496 46.8454 5.42007C46.8454 5.07519 46.776 4.79928 46.6372 4.59235C46.4984 4.38541 46.3596 4.17848 46.082 4.04053C45.8738 3.90257 45.5962 3.8336 45.3186 3.8336C45.041 3.8336 44.7634 3.90257 44.5552 4.04053C44.347 4.17848 44.1388 4.31644 44 4.59235C43.8612 4.86825 43.7917 5.07519 43.7917 5.42007C43.7917 5.76496 43.8612 6.04087 44 6.2478C44.1388 6.45473 44.2776 6.66166 44.5552 6.79962C44.7634 6.93757 45.041 7.00655 45.3186 7.00655Z" fill="#1B1A37"/>
</svg>
