<svg width="16" height="17" viewBox="0 0 16 17" fill="none" xmlns="http://www.w3.org/2000/svg">
<path d="M5.16028 9.78875L10.4725 12.7737M10.4647 4.53875L5.16028 7.52375M14.8125 3.40625C14.8125 4.64889 13.7678 5.65625 12.4792 5.65625C11.1905 5.65625 10.1458 4.64889 10.1458 3.40625C10.1458 2.16361 11.1905 1.15625 12.4792 1.15625C13.7678 1.15625 14.8125 2.16361 14.8125 3.40625ZM5.47917 8.65625C5.47917 9.89889 4.4345 10.9062 3.14583 10.9062C1.85717 10.9062 0.8125 9.89889 0.8125 8.65625C0.8125 7.41361 1.85717 6.40625 3.14583 6.40625C4.4345 6.40625 5.47917 7.41361 5.47917 8.65625ZM14.8125 13.9062C14.8125 15.1489 13.7678 16.1562 12.4792 16.1562C11.1905 16.1562 10.1458 15.1489 10.1458 13.9062C10.1458 12.6636 11.1905 11.6562 12.4792 11.6562C13.7678 11.6562 14.8125 12.6636 14.8125 13.9062Z" stroke="#1B1A39" stroke-width="1.5" stroke-linecap="round" stroke-linejoin="round"/>
</svg>
