<svg width="19" height="18" viewBox="0 0 19 18" fill="none" xmlns="http://www.w3.org/2000/svg">
<path d="M17.8931 7.35969L17.8818 7.36808L17.8707 7.37677L13.813 10.5582C13.6361 10.6939 13.5027 10.8797 13.4311 11.0928C13.3581 11.3103 13.3533 11.5448 13.4174 11.7649L14.8207 16.6774L14.8207 16.6774L14.8224 16.6832C14.8366 16.7319 14.8353 16.7836 14.8185 16.8316C14.802 16.879 14.7709 16.9215 14.728 16.9526C14.684 16.9831 14.6309 17 14.5756 17C14.5197 17 14.4658 16.9827 14.4215 16.9514L14.4103 16.9434L14.3988 16.9358L10.1256 14.0927C9.93948 13.9677 9.7206 13.9012 9.49713 13.9012C9.27367 13.9012 9.05479 13.9677 8.86868 14.0927L4.59552 16.9358L4.59551 16.9358L4.59089 16.9389C4.54437 16.9702 4.48843 16.987 4.43074 16.9861C4.37305 16.9852 4.31775 16.9667 4.27234 16.934C4.22704 16.9014 4.19411 16.8567 4.17673 16.8066C4.15939 16.7567 4.15799 16.7029 4.17266 16.6522L4.17392 16.6478L5.56679 11.7487L5.56878 11.7417L5.57068 11.7347C5.6284 11.5198 5.62138 11.2927 5.55057 11.0818C5.4798 10.8711 5.34871 10.6866 5.17466 10.5507L5.17426 10.5503L1.1275 7.39243L1.11729 7.38446L1.10688 7.37676C1.06134 7.34309 1.02874 7.29703 1.01228 7.24588C0.995836 7.19481 0.995909 7.14013 1.01249 7.0891C1.0291 7.03798 1.06182 6.992 1.10746 6.95844C1.15321 6.9248 1.20931 6.90564 1.26792 6.90469L1.27856 6.90452L1.28919 6.90412L6.44795 6.71066L6.46341 6.71008L6.47884 6.70902C6.69506 6.69421 6.90304 6.61762 7.07767 6.48761C7.25238 6.35754 7.38648 6.17932 7.46272 5.97371L7.46284 5.97339L9.23975 1.17678L9.24039 1.17503C9.25867 1.12539 9.29236 1.08125 9.33817 1.04945C9.38408 1.0176 9.43958 1 9.49713 1C9.55469 1 9.61019 1.0176 9.6561 1.04945C9.70191 1.08125 9.73559 1.12539 9.75388 1.17503L9.75387 1.17503L9.75529 1.17885L11.5373 5.95664C11.5375 5.95712 11.5376 5.9576 11.5378 5.95808C11.5379 5.95819 11.5379 5.95829 11.5379 5.9584C11.6143 6.16327 11.7481 6.34085 11.9223 6.47054C12.097 6.60056 12.3049 6.67714 12.5212 6.69195L12.5366 6.69301L12.552 6.69359L17.7108 6.88705L17.7214 6.88745L17.7321 6.88762C17.7907 6.88857 17.8468 6.90773 17.8925 6.94137C17.9382 6.97494 17.9709 7.02091 17.9875 7.07203C18.0041 7.12306 18.0042 7.17774 17.9877 7.22881C17.9713 7.27997 17.9387 7.32602 17.8931 7.35969Z" stroke="#F4B511" stroke-width="2"/>
</svg>
