<svg width="17" height="18" viewBox="0 0 17 18" fill="none" xmlns="http://www.w3.org/2000/svg">
<path d="M13.7656 11.1094C14.4791 11.1094 14.8358 11.1094 15.1172 10.9928C15.4924 10.8374 15.7905 10.5393 15.9459 10.1641C16.0625 9.88271 16.0625 9.52597 16.0625 8.8125V3.60625C16.0625 2.74867 16.0625 2.31988 15.8956 1.99233C15.7488 1.7042 15.5145 1.46995 15.2264 1.32315C14.8989 1.15625 14.4701 1.15625 13.6125 1.15625H8.40625C7.69278 1.15625 7.33604 1.15625 7.05464 1.27281C6.67944 1.42822 6.38135 1.72632 6.22593 2.10152C6.10938 2.38292 6.10938 2.73965 6.10938 3.45312M8.25313 16.4688H3.2C2.34242 16.4688 1.91363 16.4687 1.58608 16.3019C1.29795 16.155 1.0637 15.9208 0.916896 15.6327C0.75 15.3051 0.75 14.8763 0.75 14.0187V8.96562C0.75 8.10804 0.75 7.67925 0.916896 7.3517C1.0637 7.06358 1.29795 6.82933 1.58608 6.68252C1.91363 6.51563 2.34242 6.51562 3.2 6.51562H8.25313C9.11071 6.51562 9.5395 6.51563 9.86705 6.68252C10.1552 6.82933 10.3894 7.06358 10.5362 7.3517C10.7031 7.67925 10.7031 8.10804 10.7031 8.96562V14.0187C10.7031 14.8763 10.7031 15.3051 10.5362 15.6327C10.3894 15.9208 10.1552 16.155 9.86705 16.3019C9.5395 16.4687 9.11071 16.4688 8.25313 16.4688Z" stroke="#1B1A39" stroke-width="1.5" stroke-linecap="round" stroke-linejoin="round"/>
</svg>
