<svg width="54" height="54" viewBox="0 0 54 54" fill="none" xmlns="http://www.w3.org/2000/svg">
<path d="M27 0C19.8392 0 12.9716 2.84464 7.90812 7.90812C2.84464 12.9716 0 19.8392 0 27C0 34.1608 2.84464 41.0284 7.90812 46.0919C12.9716 51.1554 19.8392 54 27 54C34.1608 54 41.0284 51.1554 46.0919 46.0919C51.1554 41.0284 54 34.1608 54 27C54 19.8392 51.1554 12.9716 46.0919 7.90812C41.0284 2.84464 34.1608 0 27 0ZM21.9375 21.9375C21.9375 22.8326 21.5819 23.691 20.949 24.324C20.316 24.9569 19.4576 25.3125 18.5625 25.3125C17.6674 25.3125 16.809 24.9569 16.176 24.324C15.5431 23.691 15.1875 22.8326 15.1875 21.9375C15.1875 21.0424 15.5431 20.184 16.176 19.551C16.809 18.9181 17.6674 18.5625 18.5625 18.5625C19.4576 18.5625 20.316 18.9181 20.949 19.551C21.5819 20.184 21.9375 21.0424 21.9375 21.9375ZM35.4375 18.5625C36.3326 18.5625 37.191 18.9181 37.824 19.551C38.4569 20.184 38.8125 21.0424 38.8125 21.9375C38.8125 22.8326 38.4569 23.691 37.824 24.324C37.191 24.9569 36.3326 25.3125 35.4375 25.3125C34.5424 25.3125 33.684 24.9569 33.051 24.324C32.4181 23.691 32.0625 22.8326 32.0625 21.9375C32.0625 21.0424 32.4181 20.184 33.051 19.551C33.684 18.9181 34.5424 18.5625 35.4375 18.5625ZM36.4601 33.75H39.15C39.5976 33.75 40.0268 33.9278 40.3432 34.2443C40.6597 34.5607 40.8375 34.9899 40.8375 35.4375C40.8375 35.8851 40.6597 36.3143 40.3432 36.6307C40.0268 36.9472 39.5976 37.125 39.15 37.125H36.4601C32.8253 37.125 29.2714 38.2016 26.2474 40.2165C26.0632 40.3471 25.8547 40.4394 25.6342 40.4879C25.4137 40.5365 25.1857 40.5403 24.9637 40.4992C24.7418 40.458 24.5303 40.3727 24.3418 40.2484C24.1534 40.124 23.9918 39.9631 23.8667 39.7752C23.7416 39.5873 23.6554 39.3762 23.6134 39.1543C23.5713 38.9325 23.5742 38.7045 23.6218 38.4838C23.6694 38.2631 23.7609 38.0543 23.8907 37.8696C24.0205 37.6848 24.1861 37.5281 24.3776 37.4085C27.9557 35.023 32.1598 33.7501 36.4601 33.75Z" fill="#FF7676"/>
</svg>
