<svg width="18" height="18" viewBox="0 0 18 18" fill="none" xmlns="http://www.w3.org/2000/svg">
<path d="M12.8974 12.3333L17 16.5M17 12.3333L12.8974 16.5M12.0769 1.7423C13.2797 2.23679 14.1282 3.43443 14.1282 4.83333C14.1282 6.23224 13.2797 7.42988 12.0769 7.92437M9.20513 11.5H5.92308C4.39383 11.5 3.62921 11.5 3.02606 11.7537C2.22187 12.092 1.58294 12.741 1.24983 13.5577C1 14.1703 1 14.9469 1 16.5M10.4359 4.83333C10.4359 6.67428 8.96647 8.16667 7.15385 8.16667C5.34122 8.16667 3.87179 6.67428 3.87179 4.83333C3.87179 2.99238 5.34122 1.5 7.15385 1.5C8.96647 1.5 10.4359 2.99238 10.4359 4.83333Z" stroke="#1B1A37" stroke-width="1.5" stroke-linecap="round" stroke-linejoin="round"/>
</svg>
