<svg width="25" height="18" viewBox="0 0 25 18" fill="none" xmlns="http://www.w3.org/2000/svg">
<path d="M23.5185 3.50453C23.3943 3.01336 23.1414 2.56333 22.7853 2.1999C22.4292 1.83647 21.9826 1.57251 21.4904 1.43467C19.6924 1 12.5 1 12.5 1C12.5 1 5.30765 1 3.50956 1.47607C3.01743 1.6139 2.57076 1.87787 2.21467 2.2413C1.85857 2.60473 1.60566 3.05476 1.48148 3.54593C1.1524 5.35245 0.991436 7.18506 1.0006 9.0207C0.988867 10.8702 1.14985 12.7167 1.48148 14.5369C1.61839 15.0128 1.87696 15.4457 2.23223 15.7938C2.5875 16.1419 3.02744 16.3933 3.50956 16.5239C5.30765 17 12.5 17 12.5 17C12.5 17 19.6924 17 21.4904 16.5239C21.9826 16.3861 22.4292 16.1221 22.7853 15.7587C23.1414 15.3953 23.3943 14.9452 23.5185 14.4541C23.8451 12.6612 24.006 10.8425 23.9994 9.0207C24.0111 7.17123 23.8502 5.32466 23.5185 3.50453Z" stroke="#1B1A37" stroke-width="2" stroke-linecap="round" stroke-linejoin="round"/>
<path d="M9.9125 6.0837C9.9125 5.54032 9.9125 5.26863 10.0272 5.11695C10.1272 4.98477 10.2802 4.90207 10.4465 4.89031C10.6374 4.87681 10.8683 5.02373 11.33 5.31756L15.8642 8.20323C16.2649 8.45821 16.4652 8.5857 16.5344 8.74781C16.5948 8.88945 16.5948 9.04928 16.5344 9.19093C16.4652 9.35303 16.2649 9.48052 15.8642 9.7355L11.33 12.6212C10.8683 12.915 10.6374 13.0619 10.4465 13.0484C10.2802 13.0367 10.1272 12.954 10.0272 12.8218C9.9125 12.6701 9.9125 12.3984 9.9125 11.855V6.0837Z" stroke="#1B1A37" stroke-width="2" stroke-linecap="round" stroke-linejoin="round"/>
</svg>
